<svg id="" data-name="Layer 1" xmlns="http://www.w3.org/2000/svg" viewBox="0 0 700 383"><path d="M700,94.95V91.57l-81.5-42L679.81,0H675l-58.4,47.23L604.25,0h-3.1l12.49,47.64L488.15,9.6,499.91,0h-4.74l-8.52,7,.27-7h-3l-.29,7.44L472.76,0h-5.31l15,10.25L365.82,94l8.85-94h-3l-8.88,94.32L253.48,11.18,275.84,0h-6.71L253.37,7.88,256.25,0h-3.19l-3.21,8.77L233.63,0h-6.31L247,10.63,127.66,53.05,141.78,0h-3.1L125.1,51,101.77,0h-3.3l24.38,53.28L54.72,37.71,75.18,0H71.76L52.39,35.71,30.86,0h-3.5l23.5,39L31.52,121.84s0,.06,0,.1,0,.06,0,.1,0,0,0,0v0l-2.78,50.77a1.49,1.49,0,0,0,.23.88L85.12,266,109.2,383h7.05l104.4-44.65,19,44.65h3.26L224,338.54,308.37,359l-10.68,24H301l10.43-23.47L384.06,366l-24.82,17h5.31l22.79-15.59L390.52,383h3.06l-3.19-15.67L429.26,383h8L392.8,365.07l142.67-44.88L553.63,383h3.12l-17.93-62,119,53.2L644.59,383H650l10.4-6.9L664,383h3.39l-3.57-6.81L691.58,383H700v-1l-35.1-8.62L700,352.58V349.1l-37.91,22.44L642.77,258.33,700,286v-3.33l-54.56-26.43L700,245.09V242L641.9,254,614.73,150.6,700,206.11v-3.58L616.22,148,700,131.73v-3.06l-86.14,16.71,3.33-93.11ZM611.1,50l-111,41.62L486.9,12.35ZM143.73,135.56,247.11,235.65,102.24,189.56Zm-44.12,52.5L37,124.09l103.78,10.44Zm47.19-53.7L266.32,117,251.63,235.85Zm122.47-16.81,115,59.49L254.56,236.53Zm116.26,62.2-19.85,88L257.15,238.65Zm3.33-1.14,126.88-1.32L369,266.5Zm3.36-3L498.07,96.2l21.17,78.06Zm109-79.16,106.94,50.52-86,26.9ZM483.94,12.84l13.23,79.38L368.85,95.52Zm10.33,82.45L388.49,174.63,366,98.6ZM363,98.87l22.26,75.3L272.6,115.9Zm-2.54-2.57-91.15,17.17L252.76,14.39ZM249.47,12.92l16.64,99.87L129.63,55.54Zm13,101.6L144.71,131.63,127.6,57.94ZM124.23,56.67l16.64,71.68L57,41.31ZM53.29,41.76l86.36,89.65L34.83,120.86Zm-19,83.91L95,187.59,31.77,171.8Zm-.91,49.63L98,191.45,85.75,261.27Zm67.28,18.49,114.8,137.76L88.2,264.63ZM112,381.57,88.64,268.25l129.32,68Zm-7.78-188.25L250.86,240l-30,93.34ZM223.92,333.6l29.82-92.76L362.4,270Zm85.86,22.63L226,335.94l136.79-62.83Zm3.28.44,53.07-83.21,20.31,89.76Zm76.4,6.31-20.64-91.22,162.46,46.61Zm-19-93.85,149.45-90.88,14.81,138Zm167.23,46.69L523,178.76l115,76.88ZM659,371.42,539.73,318.1l100-60ZM638.35,252.26l-113.72-76,86.61-27.11ZM610.87,144.89,502.78,93.83,614.19,52.05Z"/></svg>