<svg id="" data-name="Layer 1" xmlns="http://www.w3.org/2000/svg" viewBox="0 0 700 383"><path d="M542.13,383h5.7c-4.58-2.82-9.11-5.71-13.57-8.72a282.6,282.6,0,0,1-2.3-52.62A369.74,369.74,0,0,0,588.81,325c15.75-.29,72.36-4.15,111.19-16.18v-3.13c-35.07,11.09-86.88,15.86-111.24,16.31a366.24,366.24,0,0,1-56.62-3.34q.62-9.71,2-19.17c6.74-47.41,27.42-87.52,59.84-116.1a261,261,0,0,0,37.59,19.29A254.91,254.91,0,0,0,700,220.53v-3a252,252,0,0,1-67.32-17.61,261.64,261.64,0,0,1-88.38-60.56,291.3,291.3,0,0,1-48.52-67.65,364.11,364.11,0,0,1,59.77.51l0-.37q4.55,4.41,9.46,8.51c36.2,30.16,85.23,44.89,135,40.67v-3q-8.4.72-16.75.74c-43.15,0-84.7-14.38-116.29-40.7A162.77,162.77,0,0,1,532.72,38.7,109.9,109.9,0,0,1,545.52,0H542.1a112.76,112.76,0,0,0-11.8,34.67A171.8,171.8,0,0,1,515,0h-3.16a168.85,168.85,0,0,0,40.8,68.94q-15.13-1.24-30.24-1.24c-9.44,0-18.84.36-28.15,1.09A338.76,338.76,0,0,1,468.45,0h-3.09a356.87,356.87,0,0,0,12.13,38.3A332.6,332.6,0,0,1,346.78,0h-6.22a612.36,612.36,0,0,0,15.2,107.67,374.64,374.64,0,0,0-80.27,54C247.66,123.32,225.56,79.29,210,30.81Q218.81,18,228.46,6.17C230.16,4.08,231.88,2,233.61,0H229.7c-1.19,1.42-2.39,2.83-3.57,4.27a389.65,389.65,0,0,0-34.76,50.48,271.11,271.11,0,0,1-64.52-40.7Q125,12.52,123.23,11q-.42-5.45-.75-11h-3q.25,4.06.53,8.11-4.42-4-8.69-8.11H107q6.49,6.41,13.3,12.4c4,50.46,13.63,98,28.78,142a545,545,0,0,0-18.05,89.69c-28.79,32.71-52.31,71.34-70.21,115.41q-4.69,11.56-8.8,23.49h3.18q3.95-11.34,8.41-22.36c17.17-42.29,39.56-79.54,66.83-111.28a648.12,648.12,0,0,0-3.54,81.92q.49,26.34,2.92,51.72h3q-2.44-25.39-2.93-51.77a642.46,642.46,0,0,1,4-85.84,350.44,350.44,0,0,1,37.6-36.6,449,449,0,0,0,27.77,49.14A330.53,330.53,0,0,0,180.66,300a339.44,339.44,0,0,0-18.59,83h3a336.39,336.39,0,0,1,18.4-81.94,327.53,327.53,0,0,1,17.71-40.27,416.87,416.87,0,0,0,47.34,59,393.93,393.93,0,0,0,55.21,47.63c-2.36,5.09-4.62,10.29-6.83,15.54h3.25c2-4.65,4-9.26,6.07-13.78q10.38,7.25,21.18,13.78h5.86q-13.19-7.73-25.75-16.54c18.51-39.27,41.88-73.7,69.82-102.89A377.48,377.48,0,0,0,448.1,300c-7.63,26.19-10.69,53.95-9.14,83h3a245.66,245.66,0,0,1,8.56-80.58q9.3,11.12,19.33,21.51A392.64,392.64,0,0,0,531.47,376q.49,3.49,1.06,7h3.05c-.26-1.58-.52-3.16-.76-4.73Q538.45,380.68,542.13,383ZM343.66,1.72a335.49,335.49,0,0,0,135,39.68v0q5.61,14.28,12.38,27.71-2.45.21-4.89.46A377.48,377.48,0,0,0,358.52,106.3,608.65,608.65,0,0,1,343.66,1.72Zm12.81,108.94a521.54,521.54,0,0,0,20.81,66.51q3.59,9.22,7.5,18.19a242.77,242.77,0,0,1-70.63,12.24,409.58,409.58,0,0,1-36.89-43.48A371.52,371.52,0,0,1,356.47,110.66Zm-46.44,97A251.36,251.36,0,0,1,243,199q5.77-6.77,11.94-13.29,9.64-10.2,20.12-19.62A413,413,0,0,0,310,207.67ZM207.91,34c15.61,48,37.66,91.64,65.33,129.74q-10.68,9.59-20.52,20-6.71,7.09-12.95,14.47a258.65,258.65,0,0,1-87.46-44q1-3.53,2.14-7C167.47,105.38,185.4,67.45,207.91,34ZM123.58,15.2l1.35,1.14a274.21,274.21,0,0,0,65,41,448.89,448.89,0,0,0-38.29,88.88q-.5,1.6-1,3.2C136.61,107.71,127.57,62.76,123.58,15.2Zm11,225a542,542,0,0,1,16.27-80.89q2.47,6.94,5.13,13.77Q162.54,190,170.2,206A353,353,0,0,0,134.56,240.19Zm66.36,14.72A458.89,458.89,0,0,1,158.76,172q-2.47-6.34-4.77-12.78a261.61,261.61,0,0,0,83.68,41.47A335.14,335.14,0,0,0,200.92,254.91ZM305,364.7a391.06,391.06,0,0,1-54.35-46.95,414.22,414.22,0,0,1-47.9-60,332.11,332.11,0,0,1,38-56.2,254.15,254.15,0,0,0,71.89,9.07h.2A393.15,393.15,0,0,0,360.67,252q7,5.12,14.14,9.89C346.93,291.1,323.57,325.51,305,364.7Zm71.88-105q-7.34-4.88-14.48-10.12A389.76,389.76,0,0,1,317,210.52a245.54,245.54,0,0,0,69-12.4q8.34,18.77,18.08,36.39A351.76,351.76,0,0,0,376.93,259.69Zm2.55,1.68a348.58,348.58,0,0,1,26.09-24.19,430.77,430.77,0,0,0,39.25,58.28A374.8,374.8,0,0,1,379.48,261.37Zm69.77,34.79c-28.53-35-51.73-75.3-69.17-120.08a518.78,518.78,0,0,1-20.85-66.79A374.49,374.49,0,0,1,486.47,72.5q3-.31,6.06-.56a294.51,294.51,0,0,0,49.61,69.48q8.89,9.21,18.45,17.45c-38.54,22.47-70,53.84-91.14,90.86A232.29,232.29,0,0,0,449.25,296.17ZM472,321.85q-9.12-9.45-17.64-19.51,7.68,2.82,15.5,5.3a370.81,370.81,0,0,0,59.1,13.6,284.49,284.49,0,0,0,2,50.77A390,390,0,0,1,472,321.85Zm59.12-22.79q-1.34,9.46-2,19.17a367.86,367.86,0,0,1-58.37-13.45q-9.6-3.05-19-6.61a229.17,229.17,0,0,1,20.28-47c21-36.85,52.46-68,91-90.29a265.05,265.05,0,0,0,28.29,20.78C558.71,210.73,537.92,251.25,531.13,299.06Z"/></svg>