<svg id="" data-name="Layer 1" xmlns="http://www.w3.org/2000/svg" viewBox="0 0 700 383"><path d="M286.48,308.63h26.7V383h3V360.72h50.06V383h3V360.72h98.35L442.46,383H447l67.83-60.12L562.59,383h3.83l-59.11-74.37H611.69L671.41,383h3.85l-19.31-24.05H700v-3H653.54l-38-47.32H700v-3H578.68V235.22H700v-3H446.59l-21.14-26.6H700v-3H624.47L700,134.83v-4l-7.46,6.7H568.44V80.12H695.56L700,84.43V80.25L673.63,54.66H700v-3H670.54L617.3,0H613l79.48,77.12H636.31L599.63,50.65V0h-3V48.48L529.45,0h-5.13l1.1.79V45.15H422.3V0h-3V45.15H383.2V0h-3V63.31L307,0h-4.59l29,25H159.09V0h-3V77.12H143L74.36,0h-4l46,51.66H43.9V0h-3V73.33l57.95,56.35V355.95H40.2V383h3V358.95h97.48V383h3V358.95H230L205,383h4.32M75.11,102.42,43.9,72.07V54.66H75.11Zm3,2.92V54.66H119l21.53,24.2,0,87.22Zm23.74,250.61V132.6l38.73,37.66.11,185.68ZM565.44,80.12V137.5H466L399.66,80.12ZM528.21,140.5v50.74l-58.7-50.74Zm-184,108.3H296.63V197.88l2.18-1.73h100Zm1.21,3h57.13v53.83H316.18V280Zm-86.48-27.86V80.12h59.83V176.5Zm34.7-23.69V248.8H232.41Zm9-7.11L419,100.83l41.47,35.85-58.57,56.48Zm19.17-19v-94h73.3l21.64,18.71Zm61.44-126H525.42v29H396.18l-13-11.22ZM334.8,28l56.8,49.1H286.27L325.18,28Zm-13.45,0-38.91,49.1H229.61L197.24,28ZM159.09,28h34.56L226,77.12H159.09Zm-15.57,52.1H255.93v146.2L227.58,248.8h-84Zm89.56,275.83h-89.4l0-47.32h138.5Zm80.1-50.32H289.59l23.59-22.75Zm-27.91,0H143.65l0-53.83H341.09Zm30.91,52.1v-49.1H423.47l24.24,49.1Zm89.36-52.1V251.8h52.77l42.78,53.83Zm107.4,14.9-42,37.2H451.05l-24.24-49.1h76.67Zm7.1-85.31h55.65v70.41H520Zm-3,0v70.41H504.93l-56-70.41ZM455.93,248.8H348.53l60.81-58.63Zm-32.87-46.18L411.5,188.07l51.27-49.43,74,64ZM689.19,140.5,620,202.62H541.37l-10.16-8.78V140.5ZM528.42,77.12V3L631.19,77.12Z"/></svg>