<svg id="" data-name="Layer 1" xmlns="http://www.w3.org/2000/svg" viewBox="0 0 700 383"><path d="M700,6.74l-15.79,20-11.95-15L681.51,0h-4.38l-7.06,8.93L663,0h-4.39l34.9,43.92L622.86,133.2l-.85,1.07,71.46,89.93L622,314.54,676.41,383h4.39l-8.59-10.81L683,358.56l-34.23-43.15,20.42-25.85,11.95,15-10.71,13.53L700,355.44V349.9l-25.2-31.77,8.52-10.77,16.68,21v-5.53l-40.12-50.5L700,221.61v-5.54l-4.29,5.42-9.28-11.68L700,192.63v-5.55l-15.77,20-11.95-15L683,178.47l-34.23-43.15,20.49-25.94,11.95,15-10.78,13.63L700,175.35v-5.53L674.8,138l8.59-10.86L700,148.09v-5.53L659.88,92.07,700,41.34V35.8l-4.29,5.42L686.4,29.5,700,12.29ZM667,286.8l-22.61,28.61,34.23,43.15L670,369.42,626.4,314.53,657.64,275ZM667,106.62l-22.68,28.71,34.23,43.15-8.51,10.76-43.68-55,31.23-39.49Z"/><polygon points="700 294.95 700 289.42 684.73 270.2 700 250.9 700 245.35 680.34 270.21 700 294.95"/><polygon points="700 114.68 700 109.15 684.73 89.93 700 70.63 700 65.08 680.34 89.94 700 114.68"/><polygon points="652.61 220.5 581.15 130.56 652.61 40.22 620.65 0 610.41 0 642.38 40.23 570.92 130.58 642.38 220.51 570.92 310.85 628.25 383 638.5 383 581.15 310.84 652.61 220.5"/><polygon points="691.87 383 700 372.71 700 367.17 687.49 383 691.87 383"/><path d="M548.52,220.15l.85-1.07-71.46-89.93,70.61-89.28.85-1.07L518.53,0h-4.39L545,38.81,513.74,78.3l-9.39-11.81L527,37.82,497,0h-4.39l30,37.82-20.47,25.9-11.95-15L501,35.09,473.13,0h-4.39l27.83,35.1L488,45.92,451.53,0h-4.39L511.5,81l-70.61,89.28-.85,1.07,71.46,89.93L440,351.63,465,383h4.39l-24.93-31.38,31.23-39.49L485,323.92l-22.68,28.69L486.45,383h4.39l-24.11-30.39,20.49-25.92,11.95,15L488.4,355.34,510.34,383h4.39l-21.95-27.67,8.59-10.85L532,383h4.39l-58.46-73.57ZM444.43,171.35l31.23-39.49L485,143.61l-22.65,28.66,34.23,43.16L488,226.23ZM490.24,229,501,215.43l-34.23-43.16,20.47-25.89,11.94,15L488.4,175l34.23,43.16L502.18,244Zm14.14,17.8L527,218.15,492.78,175l8.56-10.82L545,219.09l-31.23,39.49Z"/><polygon points="596.69 223.85 597.54 222.78 526.08 132.85 596.69 43.58 597.54 42.51 563.76 0 559.37 0 593.15 42.51 522.54 131.78 521.69 132.85 593.15 222.78 521.69 313.13 577.21 383 581.6 383 526.08 313.12 596.69 223.85"/><path d="M490.19,264.49l.85-1.07-71.46-89.93,70.61-89.28.85-1.07L425,0h-4.39l6.14,7.73L404.07,36.41,438.3,79.56l-8.53,10.79L386.11,35.41,414.11,0h-4.38L382.56,34.34l-.85,1.07,71.46,89.93-70.61,89.28-.85,1.07,71.46,89.93L392,383h4.38l21-26.54,9.34,11.75L415,383h4.38l9.5-12,9.55,12h4.39l-23.24-29.24ZM432,93.12l10.72-13.56L408.45,36.4l20.47-25.9,11.95,15-10.76,13.6,34.24,43.15-20.44,25.87Zm14.15,17.8,22.63-28.64L434.5,39.13l8.57-10.83,43.58,54.85-31.23,39.49Zm-60,104.76,31.23-39.49L426.75,188l-22.68,28.7L438.3,259.9l-8.51,10.76ZM432,273.42l10.7-13.53-34.23-43.16,20.5-25.93,11.94,15-10.78,13.63,34.24,43.15-20.42,25.84Zm14.15,17.8,22.61-28.61L434.5,219.46l8.59-10.86,43.56,54.82-31.23,39.49Z"/><polygon points="340.86 211.98 412.32 121.64 340.86 31.71 365.94 0 355.71 0 330.62 31.72 402.08 121.65 330.62 212 402.08 301.93 337.95 383 348.18 383 412.32 301.92 340.86 211.98"/><polygon points="275.03 216.64 345.64 127.36 346.48 126.29 275.03 36.37 303.79 0 299.4 0 270.64 36.37 342.1 126.3 270.64 216.64 342.1 306.57 281.65 383 286.03 383 346.48 306.57 275.03 216.64"/><path d="M298.31,302.88l-71.46-89.93,71.46-90.35L226.85,32.67,252.69,0h-4.49L189,74.87l71.46,89.93L189,255.14l71.46,89.93-30,37.92h4.48l62.53-79.06Zm-104.93-228,31.23-39.49,9.33,11.75L211.29,75.79l34.24,43.15L237,129.74Zm45.8,57.65,10.73-13.57L215.68,75.79l20.47-25.9,11.95,15L237.34,78.52l34.23,43.15-20.44,25.87Zm14.15,17.8L276,121.67,241.73,78.52l8.56-10.82,43.63,54.91-31.23,39.49ZM193.38,255.14l31.23-39.49L234,227.43l-22.68,28.7,34.24,43.15L237,310.05Zm45.83,57.68,10.71-13.54-34.24-43.15,20.49-25.93,11.95,15-10.77,13.62L271.57,302l-20.42,25.85Zm23.48,29.55-9.34-11.75L276,302l-34.23-43.15L250.31,248l43.61,54.89Z"/><polygon points="161.26 205.43 89.8 115.5 161.26 25.16 141.27 0 131.03 0 151.02 25.17 79.56 115.51 151.02 205.44 79.56 295.78 148.86 383 159.11 383 89.8 295.77 161.26 205.43"/><polygon points="106.18 207.71 34.73 117.78 106.18 27.44 84.38 0 79.99 0 101.8 27.45 30.34 117.79 101.8 207.72 30.34 298.06 97.83 383 102.22 383 34.73 298.06 106.18 207.71"/><path d="M168.52,257.28,240,166.93,168.52,77,229.43,0H225L204.36,26.15,195,14.43,206.45,0h-4.38l-9.22,11.67L183.58,0h-4.39l22.93,28.86L130.66,119.2l71.46,89.93L131.51,298.4l-.85,1.07L197,383h4.39L195,374.92l22.67-28.7-34.23-43.15L192,292.3l43.63,54.91L207.29,383h4.38L240,347.2ZM135,119.2l31.24-39.49,9.41,11.85L153,120.26l34.23,43.15-8.51,10.76Zm45.88,57.74,10.7-13.53-34.24-43.15,20.5-25.94,11.95,15L179.06,123l34.23,43.16L192.87,192Zm14.14,17.8,22.61-28.6L183.45,123,192,112.12l43.56,54.82-31.24,39.49ZM135,299.47,166.28,260l9.34,11.75L153,300.35l34.23,43.15-8.59,10.86Zm44,3.6,34.23,43.15L192.8,372.16l-11.95-15,10.77-13.62L157.4,300.34l20.42-25.85,11.95,15Z"/></svg>