<svg id="" data-name="Layer 1" xmlns="http://www.w3.org/2000/svg" viewBox="0 0 700 383"><path d="M374.81,256.59c1.56-3.8,2.89-7.54,4-10.54a56.22,56.22,0,0,1,2.83-7.18c.71-1.19,4.41-4.65,9.53-8.05a57.23,57.23,0,0,1,18.19-8.33c7.64-1.74,13.42-3.87,17.68-6.54,5.16-3.24,8.25-7.42,9.19-12.43a16.18,16.18,0,0,0,.26-3c0-5.08-1.81-11.37-3.71-18s-3.89-13.59-3.88-19.07c0-.36,0-.71,0-1.05.13-2.47.19-4.59.19-6.49,0-7.64-.88-16.33-7.37-22.82a12.73,12.73,0,0,0-9.22-3.77c-6,0-13,3.61-19.29,9.88-6.45,6.45-9.28,8.22-13.15,8.22a22,22,0,0,1-4.94-.69,7.67,7.67,0,0,1-3.47-1.39c-.33-.33-.52-.76-.52-2,0-.7.07-1.57.14-2.57.12-1.49.26-3.35.26-5.62,0-.95,0-1.9-.08-2.84-.08-1.51-.12-2.86-.15-4.09-.1-3.58-.17-6.16-1.22-8.42-1.44-3-4.4-4.93-11.32-7.24a18.36,18.36,0,0,0-5.79-1c-4.39,0-8,2.06-10.93,6.29a57.17,57.17,0,0,0-5.16,10.15l-.85,2c-1.73,3.94-4.84,5.78-9.79,5.79-3.85,0-8.1-1.15-12.13-2.39-3.08-.94-6.26-3.69-9.63-6.6l-1.65-1.42c-4-3.36-8.65-7-14.18-7.33l-.79,0h0c-6,0-9.59,4.17-12.35,8.26-1.85,2.73-3.63,6-5.7,9.7-1.52,2.76-3.25,5.89-5.18,9.11-7.93,13.23-8.79,23.53-8.79,27.35a15.17,15.17,0,0,0,1.44,7.25,8.73,8.73,0,0,1,1,4.38c0,3.77-1.67,8.23-4.59,12.24a12.7,12.7,0,0,0-2.23,7.63c0,7.18,4,14.57,6.59,17.55s6.76,4,10.84,5.13a32.59,32.59,0,0,1,7.31,2.55c1.64.91,3,1.77,4.22,2.61a38.57,38.57,0,0,0,11.35,5.47c7.62,2.35,13.43,4.56,18.76,11.66,2.44,3.24,3.54,9.75,4.6,16l.07.39c1.16,6.76,2.36,13.74,5.77,17.86,2.55,3,7,4.66,12.79,4.66h0c8.65,0,19.11-3.65,26.64-9.3C365.73,274.44,370.31,267.5,374.81,256.59Zm-41,28.65c-3.52,0-8.27-.66-10.87-3.76-3-3.59-4.17-10.55-5.23-16.68l-.07-.38c-1.17-6.89-2.27-13.41-5.07-17.13-5.77-7.69-12.21-10.14-20-12.55a36,36,0,0,1-10.72-5.17c-1.31-.86-2.67-1.75-4.38-2.7a34.39,34.39,0,0,0-7.89-2.78c-3.88-1-7.55-2-9.59-4.35-2.48-2.9-6-9.76-6-15.92a10.27,10.27,0,0,1,1.75-6.16c3.22-4.43,5.07-9.43,5.07-13.71a11.16,11.16,0,0,0-1.34-5.62,13,13,0,0,1-1.11-6c0-3.61.82-13.37,8.43-26.06,2-3.26,3.69-6.41,5.23-9.19,2-3.69,3.79-6.87,5.58-9.5,3.4-5,6.47-7.16,10.25-7.16h0l.71,0c4.73.3,8.85,3.49,12.68,6.74l1.64,1.41c3.57,3.09,7,6,10.53,7.1,4.21,1.3,8.68,2.5,12.88,2.5,6,0,9.92-2.4,12.07-7.29l.85-2a55.43,55.43,0,0,1,4.91-9.7c3.54-5.06,7.83-6.34,13.88-4.32s8.75,3.61,9.85,5.93c.83,1.78.89,4.15,1,7.43,0,1.24.07,2.62.16,4.15,0,.9.07,1.81.07,2.71,0,2.17-.14,4-.25,5.43-.08,1.05-.15,2-.15,2.77a5,5,0,0,0,1.25,3.77c.88.9,2.28,1.52,4.68,2.07a24.28,24.28,0,0,0,5.5.76c5.1,0,8.73-2.76,14.91-9,5.81-5.81,12.2-9.14,17.54-9.15a10.14,10.14,0,0,1,7.44,3c4.71,4.71,6.64,10.81,6.64,21.05,0,1.85-.06,3.93-.18,6.36,0,.38,0,.78,0,1.18,0,5.83,2,12.91,4,19.76,1.86,6.49,3.61,12.61,3.61,17.34a13.76,13.76,0,0,1-.21,2.54c-.82,4.36-3.45,7.88-8.06,10.77-4,2.51-9.54,4.55-16.91,6.22-7.52,1.71-14.49,5.67-19,8.69-5.4,3.59-9.34,7.24-10.29,8.85a53.34,53.34,0,0,0-3,7.63c-1.06,3-2.37,6.69-3.91,10.43-4.26,10.33-8.71,17.13-13.59,20.8C351.78,281.78,341.91,285.23,333.76,285.24Z"/><path d="M366,363.61a29.57,29.57,0,0,0,7.73-4.6,53.12,53.12,0,0,0,5.3-5.79c3.07-3.71,6-7.21,9.82-7.89,1.3-.24,2.95-.48,4.7-.74,2.78-.41,5.93-.87,8.94-1.49,4.7-1,9.77-2.34,11.82-5.14l.93-1.29c4.5-6.26,16.47-22.88,17.69-31.8a36.69,36.69,0,0,0,.34-4.84,26.92,26.92,0,0,0-4.2-14.48,9.5,9.5,0,0,1-1.23-4.55c0-1.13.27-3.79,2.42-4.09l.4,0c1.23,0,3.31.88,5.51,1.82l.93.39c2.84,1.19,6.16,2.45,9.51,2.46a11.12,11.12,0,0,0,5-1.14c3.5-1.76,5.73-5.11,6.8-10.26.39-1.87.59-3.71.76-5.33a21,21,0,0,1,.57-3.66c.72-2.18,1.67-3.35,3.94-6.18,1.14-1.41,2.55-3.16,4.38-5.59a15.44,15.44,0,0,0,3.38-9.89c0-.35,0-.68,0-1s0-.48,0-.7a4.79,4.79,0,0,1,0-.65l.26,0c1.47,0,4.15,1.76,5,2.33,1.17.77,2.5,1.7,3.91,2.69s3.08,2.16,4.83,3.33c3.37,2.24,8.21,3.28,15.24,3.28,8.13,0,18.29-1.46,28.05-3a59.24,59.24,0,0,0,27.19-12.64c8.1-6.68,12.93-14.42,13.25-21.24l.13-2.93-.2.18c-1.27-15.11-16.4-42.69-24.75-52.73-4.24-5.06-12.23-8.41-24.43-10.25A208.67,208.67,0,0,0,497,144.35l-3.89-.16a26.25,26.25,0,0,1-13.41-3.94,16.81,16.81,0,0,1-2.88-2.36c-.3-.31-.51-.57-.62-.69L476,137c-8.68-14.37-17.57-30.53-17.77-33.29a44.58,44.58,0,0,1,5.86-6.78,8.76,8.76,0,0,0,3.26-5l.19-.69A31.09,31.09,0,0,1,470,84.75a35.26,35.26,0,0,1,5.17-7.31,38.47,38.47,0,0,0,7.73-12.39,14.68,14.68,0,0,0,.9-5.21c0-9.55-7.95-20.18-12.94-24.64-4.85-4.3-9.21-12.84-11.12-21.77C459.22,11.06,457,7.76,452.63,3c-.9-1-1.88-2-2.92-3h-3.54c1.68,1.65,3.23,3.24,4.61,4.74C454.7,9,456.89,12.1,457.3,14c2,9.4,6.68,18.47,11.9,23.1,5,4.48,12.09,14.51,12.1,22.78a12.22,12.22,0,0,1-.74,4.33,36.39,36.39,0,0,1-7.29,11.66,37.79,37.79,0,0,0-5.5,7.81,33.78,33.78,0,0,0-2.63,6.9l-.19.67A6.33,6.33,0,0,1,462.5,95a49.38,49.38,0,0,0-6.42,7.42c-.67.91-1.51,2,8.24,19.45,4.63,8.28,9.53,16.39,9.58,16.47l.32.44c.17.21.43.52.79.89a19.35,19.35,0,0,0,3.31,2.72A28.74,28.74,0,0,0,493,146.7l3.91.16a206.63,206.63,0,0,1,22.66,1.74c11.57,1.74,19.06,4.81,22.88,9.38,4.59,5.53,10.67,15.54,15.49,25.5,5.64,11.67,8.75,21.45,8.77,27.53,0,.24,0,.48,0,.71l0,.69c-.57,6-5,12.75-12.3,18.76a56.66,56.66,0,0,1-26,12.1c-9.66,1.56-19.7,3-27.65,3-6.43,0-11-.94-13.86-2.86-1.72-1.15-3.35-2.29-4.78-3.3s-2.77-1.94-4-2.73c-2.93-1.92-4.85-2.74-6.42-2.74l-.66.05-.16,0a2.22,2.22,0,0,0-1.65,1.22,4.28,4.28,0,0,0-.31,1.88c0,.23,0,.48,0,.75s0,.6,0,.93A13.09,13.09,0,0,1,466,247.9c-1.8,2.4-3.2,4.13-4.32,5.53-2.33,2.9-3.51,4.35-4.37,7a21.93,21.93,0,0,0-.68,4.18c-.17,1.56-.36,3.34-.72,5.09-.92,4.41-2.66,7.12-5.47,8.53a8.65,8.65,0,0,1-3.89.87c-2.89,0-5.93-1.17-8.55-2.26l-.92-.39c-2.55-1.08-4.75-2-6.58-2h0l-.56,0c-2.85.4-4.64,2.92-4.67,6.57a11.91,11.91,0,0,0,1.55,5.8c2,3.57,3.87,7.27,3.87,13.24a34.26,34.26,0,0,1-.32,4.51c-1.13,8.3-13.25,25.14-17.24,30.67l-.93,1.29c-1.56,2.14-6.62,3.39-10.29,4.15-2.94.6-6.05,1.06-8.8,1.46-1.77.26-3.44.51-4.77.75-4.75.84-8.08,4.86-11.3,8.75a51.2,51.2,0,0,1-5,5.52,27.18,27.18,0,0,1-7.1,4.19l-1.54.71c-2.83,1.34-5.74,2.94-7.46,6.38a31.91,31.91,0,0,0-1.95,6.08,50.55,50.55,0,0,1-2.13,7c-.22.54-.46,1-.71,1.52h2.77c.08-.19.17-.37.25-.57a53.37,53.37,0,0,0,2.25-7.31,30.59,30.59,0,0,1,1.76-5.58c1.24-2.47,3.24-3.79,6.29-5.24Z"/><path d="M321.51,373.41c0-2.13.17-4.14.33-6.08.14-1.75.28-3.39.28-5a13.43,13.43,0,0,0-1.21-6.17,37.22,37.22,0,0,0-5.45-7.79c-1.18-1.31-4.2-4.37-6.61-4.37h-.06l-.43,0c-.27,0-1,.15-3.93,2.44-1.66,1.29-3.76,3-6.13,5l-.33.27c-4.61,3.83-9.84,8.16-14.16,11.09-1.17.79-4.71,3.18-6.5,3.19-3,0-7.6-1.84-12.16-3.82-1.26-.55-2.51-1.11-3.74-1.66a85.13,85.13,0,0,0-8.89-3.65,43.53,43.53,0,0,1-5-2c-2.89-1.3-5.88-2.65-8.66-2.65a7.16,7.16,0,0,0-4.89,1.82c-1.75,1.52-3.7,4.41-6,7.75-1,1.45-2,3-3,4.4-3,4.14-6.54,8.38-10,8.41-6.89,0-11-2.19-19-8.36a53.14,53.14,0,0,1-6.42-6c-.81-.85-1.56-1.65-2.37-2.42a24.7,24.7,0,0,0-11.07-6.41c-10.34-3-23.59-12.13-28.38-16.31l-1.53-1.32c-4.28-3.66-10.74-9.19-10.77-15.43a9.13,9.13,0,0,1,.34-2.47c2.52-8.72,16.31-16.79,22.19-20.24a55.48,55.48,0,0,0,4.7-3.16c4-2.88,7.73-5.6,14.66-5.6a33.47,33.47,0,0,1,4.49.32c5.66.77,11,1.87,15.72,2.84,5.77,1.19,10.32,2.12,13.62,2.12a12.44,12.44,0,0,0,1.45-.08c.72-.08,1.89-.12,3.58-.12,5.85,0,16.19.49,24.49.88,5.52.26,9.88.47,11.55.47h0c2.68,0,6.7-1.18,10.26-3,2.48-1.26,6.93-4,8.88-7.89,2.21-4.38,8.07-16,13-18.53,2.88-1.43,5.93-4.72,5.9-8,0-2-1.07-4.59-6.07-5.95l-4.87-1.28c-10.6-2.75-28.34-7.36-37.14-11.5-1.1-.52-2.26-1-3.46-1.58A84.86,84.86,0,0,1,227,229.56c-5.27-3.5-7.83-7.29-7.83-11.59a12.7,12.7,0,0,1,.36-2.92c.87-3.62,1.54-7.48,2.19-11.21,1.7-9.72,3.31-18.89,8-24.47a138.86,138.86,0,0,0,10.55-15.31c2.72-4.45,4.82-8.17,5.4-9.2l.16-.29v-.33c0-2.21-.71-9.24-1.45-16.68-.79-8-1.6-16.17-1.6-18.66,0-3.29-.29-11.38-3.27-15.41a6,6,0,0,0-4.28-2.62c-.7-.07-1.51-.1-2.5-.1-2.6,0-5.87.25-9.32.5-3.62.27-7.36.55-10.46.55a24.14,24.14,0,0,1-4.52-.33c-3.47-.7-9.55-2.79-15.42-4.82-4.38-1.51-8.53-2.94-11.41-3.73a85.52,85.52,0,0,1-13.43-5.59c-5.19-2.6-9.26-5.05-10.61-6.4-.37-.37-.86-.83-1.42-1.36-1.34-1.26-3.17-3-4.79-4.85-2.73-3.13-4.06-5.64-4.07-7.66a3.69,3.69,0,0,1,.61-2.07c.54-.79,2.28-1.66,5.17-2.59a87.5,87.5,0,0,1,11.17-2.54,186.58,186.58,0,0,1,29.35-2.49c7.75,0,14,.65,18.08,1.86a252.7,252.7,0,0,1,25.42,9.59l3.66,1.55c6.37,2.71,11.41,4.85,13.76,5.37a53.42,53.42,0,0,0,6.36.84c4.76.45,10.16,1,14.15,3.33,3.78,2.28,7.7,2.32,12.24,2.37a52.72,52.72,0,0,1,10.05.8c5,1,14.46,6.3,22,10.55,2.69,1.51,5.23,2.93,7.36,4.05,4.77,2.53,5.82,2.53,6.25,2.53s1.42,0,6-2.32c2-1,4.26-2.22,6.69-3.53l2.7-1.45c6.67-3.55,14.13-7.39,18.34-8,2.08-.3,4.56-.48,7.18-.68,5.54-.42,11.27-.86,14.88-2.39,2.15-.91,3.42-2.18,3.77-3.76l.08-.75c0-1.54-.9-3.64-2.87-6.6-1.51-2.26-3.46-4.79-5.53-7.47l-.62-.81c-4.06-5.28-9.1-11.84-10-16.52a17.71,17.71,0,0,1-.3-3.27,28.87,28.87,0,0,1,1.54-8.26,26.12,26.12,0,0,0,1.43-7.54,14.31,14.31,0,0,0-.86-4.9c-1.33-3.75-6.1-9.73-14.58-18.29-1.24-1.26-2.5-2.5-3.75-3.73h-3.58c1.84,1.79,3.72,3.63,5.56,5.49,8.1,8.18,12.81,14,14,17.37a11.86,11.86,0,0,1,.72,4.07,24.25,24.25,0,0,1-1.33,6.83,30.87,30.87,0,0,0-1.64,9,20.37,20.37,0,0,0,.35,3.73c1,5.27,6,11.81,10.47,17.58l.63.81c2,2.64,4,5.14,5.43,7.33,2.09,3.13,2.44,4.55,2.45,5.14l0,.34c-.19.72-1,1.37-2.29,1.93-3.23,1.37-9,1.81-14.09,2.2-2.67.2-5.18.39-7.35.7-4.61.66-12,4.45-19.16,8.27l-2.71,1.45c-2.42,1.3-4.71,2.53-6.64,3.5-3.92,2-4.83,2-4.89,2s-1-.08-5.05-2.24c-2.11-1.11-4.63-2.52-7.31-4-8.13-4.56-17.35-9.73-22.77-10.82a54.73,54.73,0,0,0-10.52-.85c-4.35,0-7.79-.08-11-2-4.48-2.67-10.17-3.21-15.2-3.68a51.79,51.79,0,0,1-6-.79c-2.13-.47-7.32-2.67-13.33-5.23L238,66.56a254.85,254.85,0,0,0-25.68-9.69c-4.37-1.3-10.69-2-18.79-2a189.27,189.27,0,0,0-29.77,2.52,89.91,89.91,0,0,0-11.51,2.62c-3.62,1.17-5.56,2.23-6.48,3.57a6.17,6.17,0,0,0-1,3.47c0,2.69,1.5,5.65,4.69,9.3,1.71,2,3.59,3.72,5,5,.54.51,1,.95,1.37,1.31,2.24,2.23,8.62,5.54,11.25,6.86a86.62,86.62,0,0,0,13.89,5.76c2.8.76,6.9,2.18,11.25,3.68,6,2.05,12.11,4.18,15.75,4.91a26.46,26.46,0,0,0,5,.38c3.2,0,7-.28,10.65-.56,3.41-.26,6.63-.5,9.14-.5.89,0,1.65,0,2.25.09a3.49,3.49,0,0,1,2.52,1.62c2.61,3.53,2.79,11.55,2.79,13.93,0,2.62.82,10.9,1.62,18.91.67,6.73,1.36,13.69,1.43,16.13-.74,1.32-2.7,4.76-5.18,8.82a136.5,136.5,0,0,1-10.33,15c-5.13,6.09-6.87,16-8.56,25.65-.65,3.69-1.31,7.51-2.16,11.06a15.2,15.2,0,0,0-.43,3.5c0,5.21,2.93,9.68,8.95,13.68a86.76,86.76,0,0,0,12.15,6.28c1.18.53,2.33,1.05,3.42,1.56,9,4.24,26.89,8.89,37.57,11.66l4.86,1.27c2.79.75,4.21,1.95,4.22,3.55,0,1.89-2.05,4.51-4.52,5.74-5,2.55-10,11.36-14.15,19.65-1.19,2.4-4,4.87-7.79,6.78a22.86,22.86,0,0,1-9.12,2.73h0c-1.61,0-6.17-.21-11.44-.46-8.33-.39-18.7-.88-24.61-.88-1.78,0-3,0-3.86.13a10.24,10.24,0,0,1-1.19.06c-3,0-7.69-1-13.09-2.07-4.75-1-10.13-2.09-15.88-2.87a35.69,35.69,0,0,0-4.82-.35h0c-7.74,0-12,3.09-16.13,6.08a53.61,53.61,0,0,1-4.5,3c-9.56,5.6-20.85,13.13-23.33,21.71a11.66,11.66,0,0,0-.44,3.16c0,7.39,7,13.37,11.64,17.32l1.5,1.3c4.94,4.31,18.6,13.67,29.32,16.83a22.14,22.14,0,0,1,10,5.81c.76.74,1.51,1.52,2.29,2.35a56,56,0,0,0,6.7,6.25c8.13,6.26,12.78,8.88,20.53,8.88,4.52,0,8.42-4.56,12-9.44,1.06-1.48,2.09-3,3.08-4.46,2.07-3.06,4-6,5.53-7.26a4.71,4.71,0,0,1,3.27-1.2c2.22,0,4.84,1.18,7.61,2.43a45.46,45.46,0,0,0,5.35,2.15,84.11,84.11,0,0,1,8.59,3.53c1.23.55,2.5,1.12,3.76,1.67,4.81,2.09,9.74,4,13.17,4,1.79,0,4.15-1.1,7.89-3.62,4.42-3,9.7-7.38,14.35-11.24l.33-.27c2.35-2,4.43-3.68,6.07-4.94a17.92,17.92,0,0,1,2.82-1.95h.1c.59,0,2.39,1,4.72,3.55a34.57,34.57,0,0,1,5.07,7.23,11.1,11.1,0,0,1,.95,5.05c0,1.46-.13,3.05-.27,4.75-.16,2-.33,4.06-.33,6.29,0,1,0,2,.1,2.88a15.63,15.63,0,0,0,2,6.71h3a12.84,12.84,0,0,1-2.49-6.89C321.55,375.25,321.51,374.37,321.51,373.41Z"/><path d="M375.56,364.25c1.89-1.56,3.9-3.14,5.68-4.53s3.54-2.78,4.65-3.74a4.58,4.58,0,0,1,3.25-1.37,19.9,19.9,0,0,1,4.14.74,67.33,67.33,0,0,0,8.52,1.6,18.93,18.93,0,0,0,2.13.13h0c4.41,0,8.33-1.72,12-5.27A59.66,59.66,0,0,0,422.3,344c.57-.79,1.14-1.57,1.72-2.34,5.42-7.22,14.72-20.84,19.05-28.26a9.33,9.33,0,0,0,1.32-4.76,16.46,16.46,0,0,0-1.62-6.25,10.22,10.22,0,0,1-1-3.41c0-.58.12-1.28,1.44-2.17A46.43,46.43,0,0,0,447,294c.4-.33.74-.6,1.07-.84.87-.62,1.69-1,4.32-1.58s5.76-2.87,9.47-7.07c2.33-2.64,4.47-5.54,6.19-7.88l1.14-1.54c1.71-2.29,2.72-5.88,3.8-9.67.21-.76.43-1.53.66-2.29,1.14-3.92,2.62-8.14,4.94-9.66a6.53,6.53,0,0,1,3.71-1.27c2,0,4,1.16,6.66,2.63,1,.59,2.13,1.19,3.33,1.8,6,3,20,7.54,26,7.55a9,9,0,0,0,1.15-.07c2.73-.35,8.63-2.79,15.45-5.61l.62-.25c6.31-2.61,13.46-5.57,18.4-7,6.79-2,13.81-10.31,17.39-15.08,5.35-7.13,9.87-15.34,11.78-21.4a10.13,10.13,0,0,0,.42-3.11c0-9.19-8.35-25.67-13.32-34.67-7.33-13.27-15.81-25.74-21.1-31-4.79-4.79-11.58-7.11-20.75-7.11a100,100,0,0,0-10.78.74c-2.29.24-4.27.46-5.75.46-.33,0-.67,0-1,0a99.42,99.42,0,0,1-16.43-3.38c-7.17-2.09-12.23-4.65-13.53-6.86-1.17-2-4.73-7.88-7.78-13.78-3.29-6.33-5.17-11.18-5.16-13.32a1.35,1.35,0,0,1,.07-.56c1-1.53,4.57-3.61,7.92-5.44l1.9-1a92.63,92.63,0,0,0,10-5.94c6.25-4.57,6.76-13.17,6.77-23.11q0-1.25,0-2.52c0-.84,0-1.69,0-2.54,0-5-3.66-12.66-11.13-23.58-4-5.89-8.12-11.12-10.32-13.94-.7-.89-1.3-1.66-1.47-1.92-2.54-3.81-9.2-13.72-15.17-22h-3.09c6.5,8.94,14.26,20.5,16.22,23.44.18.27.6.81,1.54,2,2.18,2.79,6.24,8,10.23,13.81,7.08,10.34,10.67,17.8,10.69,22.17q0,1.28,0,2.55c0,.84,0,1.68,0,2.51,0,9.25-.45,17.21-5.75,21.09a90.84,90.84,0,0,1-9.68,5.77l-1.91,1c-4.4,2.4-7.58,4.39-8.79,6.25a3.4,3.4,0,0,0-.5,1.94c0,3.28,3,9.68,5.44,14.48,3.08,6,6.67,11.94,7.85,13.9,2.13,3.61,9.32,6.33,15,8a102.27,102.27,0,0,0,16.89,3.47,8.24,8.24,0,0,0,1.21,0c1.61,0,3.65-.22,6-.47a98,98,0,0,1,10.52-.72c8.48,0,14.69,2.09,19,6.38,5.06,5.07,13.57,17.6,20.68,30.48,8.25,15,13,27.16,13,33.46a7.81,7.81,0,0,1-.31,2.35c-1.83,5.82-6.2,13.73-11.39,20.66-5.87,7.81-11.58,12.85-16.1,14.18-5.07,1.49-12.28,4.48-18.65,7.11l-.62.25c-6.38,2.64-12.42,5.13-14.82,5.44a6.56,6.56,0,0,1-.82,0c-5.6,0-19.3-4.49-24.92-7.29-1.15-.58-2.2-1.17-3.22-1.74-2.82-1.58-5.25-2.95-7.92-2.95a9,9,0,0,0-5,1.69c-3,2-4.63,6.47-6,11-.23.77-.45,1.55-.66,2.32-1,3.56-2,6.93-3.39,8.85l-1.15,1.55c-1.69,2.29-3.8,5.15-6.06,7.71-3.3,3.73-6,5.79-8.15,6.28-2.73.61-3.95,1.07-5.22,2-.37.26-.75.57-1.19.93a43.74,43.74,0,0,1-3.68,2.72,4.94,4.94,0,0,0-2.55,4.22,11.67,11.67,0,0,0,1.21,4.39,14.31,14.31,0,0,1,1.43,5.31,6.77,6.77,0,0,1-1,3.49c-4.29,7.35-13.51,20.86-18.89,28-.58.78-1.16,1.57-1.74,2.37a57.93,57.93,0,0,1-6.1,7.49c-3.2,3.11-6.46,4.56-10.24,4.56-.61,0-1.22,0-1.86-.11a65.12,65.12,0,0,1-8.22-1.55,21.14,21.14,0,0,0-4.75-.81,7.11,7.11,0,0,0-4.85,2c-1.08.93-2.7,2.2-4.57,3.67s-3.8,3-5.72,4.56c-7.52,6.15-8.12,8.06-8.32,8.67a38.89,38.89,0,0,0-.87,3.83c-.44,2.23-1,5.18-1.86,8.17h2.59c.76-2.84,1.31-5.58,1.72-7.69.31-1.56.58-2.91.79-3.55C368.31,370.88,370.44,368.44,375.56,364.25Z"/><path d="M200.39,379.85c-.91-1.06-2.35-3-4-5.18-3.44-4.56-7.73-10.24-11.24-13.77-2.05-2.08-3.7-3.22-4.87-3.36-2-.29-7.87-1.47-14.11-3.11-7.44-2-12.57-3.79-14.85-5.3-5.89-4-18.11-14.63-20.43-20.94a29,29,0,0,1-1.16-9c0-8.75,2.32-19.69,8.75-24.15,9.83-6.75,22.92-13.89,28.91-14.51.51-.05,1.18-.08,2-.08,5.44,0,16.28,1,25.85,2,5.33.52,9.94,1,12.93,1.16,9.19.62,28.08.62,34.29.62.89,0,1.81,0,2.74.08s2,.08,3.09.08c4.72,0,9.92-.92,12.73-7.44a90.34,90.34,0,0,0,3.27-8.92c.87-2.74,1.45-4.55,2.72-6.15a2.48,2.48,0,0,0,.56-1.52,4.37,4.37,0,0,0-1.92-3.16,21.41,21.41,0,0,0-4.34-2.7A64.58,64.58,0,0,0,248.81,250c-9.29-2.34-24.49-10-28.13-17.24-3.11-6.23-6.25-17.37-6.25-28.21,0-1.66.08-3.31.23-4.9.59-5.83,5.32-15.53,10.52-25.8l.84-1.64c4.91-9.63,9.15-18,9.42-22.09.13-1.87.2-4,.2-6.23a91.33,91.33,0,0,0-1-13.85c-.55-3.5-1.65-8.18-3.73-10.53-1.89-2.18-6-3.9-12.79-5.41-1.87-.42-3.72-.78-5.5-1.13a55.21,55.21,0,0,1-7.13-1.66c-2.08-.78-7-2.52-13.16-4.67s-8.31-2.89-9.2-3.18l-.28-.11-.06,0c-3.56-1.44-35-14.18-40.71-17.61-6.29-3.76-9.34-9.3-9.33-16.93,0-8.37,8.5-15.16,14.6-16.84,1.93-.52,6.24-.78,13.16-.78,7.41,0,16.16.3,23.18.54,4.44.15,8,.27,9.86.27,7,0,22.06,1.74,31.6,3.65,6.73,1.35,13.25,5.12,18,7.88,1.68,1,3.12,1.81,4.37,2.43,5.19,2.6,13.15,5.6,19.89,6.21l1.27.11c3.75.33,10.75.94,17.92,2.1,10,1.61,16.95,3.69,20.72,6.19,2.17,1.45,4.15,2.89,6.07,4.27,6.26,4.53,11.2,8.11,17.09,8.11,4.51,0,9.89-2.56,15.59-5.27A76.61,76.61,0,0,1,357,83.1a66.61,66.61,0,0,1,10.17-1.63c4.34-.48,8.44-.93,11.25-2.1,2.12-.88,3.33-2.09,3.68-3.68l.09-.8c0-1.46-.84-3-2.61-4.66a48.45,48.45,0,0,0-5.31-4.13l-.55-.39c-3.43-2.45-7-5-7.5-7.51a20.37,20.37,0,0,1-.32-4c0-.46,0-.93,0-1.41s0-1,0-1.55c0-4.33-.36-9.67-4.68-18.3-4.67-9.34-11.86-17.11-18.21-24-2.81-3-5.47-5.92-7.56-8.57L335.19,0H332q.72,1,1.46,1.91c2.15,2.73,4.84,5.64,7.69,8.72C347.43,17.38,354.5,25,359,34c4.07,8.14,4.41,13.14,4.41,17.19,0,.52,0,1,0,1.52s0,1,0,1.44a22.94,22.94,0,0,0,.37,4.53c.74,3.49,4.68,6.31,8.5,9l.55.4a48,48,0,0,1,5,3.9c1.54,1.46,1.82,2.35,1.83,2.78l0,.39c-.08.32-.37,1.09-2.19,1.85-2.47,1-6.4,1.47-10.56,1.93a68.26,68.26,0,0,0-10.58,1.71A78.39,78.39,0,0,0,345,85.39c-5.2,2.47-10.57,5-14.59,5-5,0-9.66-3.37-15.55-7.63-1.93-1.4-3.93-2.85-6.15-4.33-4.13-2.74-11.24-4.89-21.71-6.58-7.26-1.17-14.31-1.78-18.1-2.12l-1.26-.11c-6.4-.58-14.23-3.57-19-6-1.18-.59-2.6-1.41-4.23-2.36-4.91-2.84-11.63-6.74-18.77-8.17-9.67-1.93-25-3.69-32.09-3.7-1.87,0-5.36-.12-9.77-.27-7-.24-15.81-.54-23.27-.54-7.25,0-11.64.28-13.82.87-10.12,2.78-16.42,12.16-16.44,19.24,0,8.47,3.54,14.89,10.55,19.08,5.73,3.44,34.85,15.28,40.94,17.74l.19.19h.31l9.27,3.22c6.14,2.14,11,3.87,13.11,4.65a55.84,55.84,0,0,0,7.53,1.77c1.77.35,3.6.7,5.44,1.12,6.12,1.35,10,2.9,11.45,4.62,1.32,1.49,2.43,4.79,3.14,9.28a88.75,88.75,0,0,1,1,13.46c0,2.14-.07,4.24-.2,6.06-.24,3.63-4.78,12.52-9.16,21.13l-.84,1.64c-5.52,10.89-10.15,20.41-10.78,26.69-.16,1.67-.25,3.4-.25,5.15,0,11.25,3.27,22.83,6.52,29.33,4.12,8.15,20.21,16.14,29.75,18.55a62,62,0,0,1,12,4.28,19.32,19.32,0,0,1,3.84,2.37c.79.65,1,1.12,1,1.22-1.55,2-2.22,4-3.14,6.94a88.15,88.15,0,0,1-3.18,8.69c-2.12,4.91-5.57,5.91-10.49,5.93-1,0-2,0-2.94-.08s-1.93-.08-2.85-.08c-6.19,0-25,0-34.12-.61-2.95-.2-7.76-.66-12.85-1.15-11.22-1.08-24.14-2.32-28.36-1.9-6.7.69-20.29,8.22-30.07,14.94-7.23,5-9.82,16.82-9.84,26.2a31,31,0,0,0,1.31,9.86c2.72,7.4,16.21,18.69,21.39,22.16,2.54,1.69,7.78,3.58,15.6,5.64,6.33,1.66,12.33,2.87,14.41,3.17.26,0,1.39.57,3.43,2.64a82.32,82.32,0,0,1,5.61,6.49c-4-2.89-9.19-3.91-15.19-5.07-5.08-1-10.85-2.1-16.49-4.63-11.7-5.27-23.28-16.58-30.21-25.4-4.64-5.9-8.48-11.28-8.49-17.32a16.58,16.58,0,0,1,1.28-6.21c1.71-4.27,6.14-11.29,11.56-18.34,5.59-7.25,10.71-12.56,13.69-14.19,2.38-1.29,8.23-2.65,16-3.71a177.53,177.53,0,0,1,22.35-1.62,55.58,55.58,0,0,1,8.69.54c7.72,1.29,18.15,2,25.77,2.48,3.26.21,6.07.4,7.9.58.84.08,1.85.21,3,.36a94.22,94.22,0,0,0,11.45,1h.1c6.22,0,10.06-1.44,11.43-4.26a18.17,18.17,0,0,0,2-8c0-4.3-1.79-7.43-4.91-8.59l-2-.73c-6.09-2.26-18.77-7-24.16-10.19-2.54-1.55-5.8-7.12-8.94-15.28-2.75-7.19-4.67-14.66-4.67-18.16,0-3-1.17-7.54-2.42-12.34-1.39-5.33-3-11.38-3-15.76a11,11,0,0,1,.45-3.39,134.56,134.56,0,0,1,10.91-23c3.38-5.6,7.68-18.23,7.66-22.52a3.85,3.85,0,0,0-.24-1.47,2.22,2.22,0,0,0-1.68-1.13,15,15,0,0,0-2.32-.29c-1.56-.1-3.53-.12-5.81-.14h-1.09c-5.77-.07-11.8-.23-16.46-1.43-3.37-.88-5.43-2.13-6.29-3.84-4.36-8.71-10.67-15-18.77-18.76-7.11-3.29-26-12-33.93-20.57-6.74-7.26-10.77-16.24-10.77-24a20.94,20.94,0,0,1,.6-5.07c1.31-5.19,6.65-8.34,10.91-10.06a49.24,49.24,0,0,1,17.53-3.3c2.34,0,5.88-.1,10.37-.24,6.79-.2,15.23-.46,23.64-.46,15.09,0,24.86.82,29.86,2.48,4.21,1.4,9.06,2.69,13.76,3.93,2.54.67,5.07,1.34,7.52,2,6.14,1.74,12.89,3.9,16.32,6.7,6.6,5.41,16.53,8.76,22,8.76h0c2,0,5.33-.3,8.82-.62,3.85-.35,7.83-.72,10.47-.72a12.89,12.89,0,0,1,1.93.11l1.88.3c5.24.82,16.15,2.52,23,5.16a65.13,65.13,0,0,1,6.45,3c3.43,1.75,6.39,3.26,10.65,3.26.54,0,1.1,0,1.64-.07.86-.07,1.92-.1,3.22-.1s2.76,0,4.24.07,3.22.08,4.81.08h.23c5.81,0,9.27-.64,10.91-2a3.29,3.29,0,0,0,1.27-2.61c0-3.67-3.12-8.61-5-11.23a59,59,0,0,0-10-10.88C345.74,46.69,342.19,43,338.68,33c-1.83-5.21-6.6-8.82-11.21-12.3l-.57-.43c-5.1-3.87-9.08-7.23-10.2-12.22A59.11,59.11,0,0,1,315.63,0h-2.51a62.22,62.22,0,0,0,1.14,8.62c1.41,6.29,6.8,10.38,11.13,13.67l.57.43c4.51,3.41,8.77,6.63,10.35,11.13,3.73,10.59,7.47,14.48,14.54,20.26a56.33,56.33,0,0,1,9.57,10.39c2.84,4,4.53,7.64,4.52,9.77a.82.82,0,0,1-.38.71c-.78.65-3,1.42-9.3,1.42H355c-1.57,0-3.19,0-4.75-.07s-3-.07-4.3-.07-2.49,0-3.43.11c-.48,0-1,.06-1.46.06-3.63,0-6.09-1.25-9.49-3a67,67,0,0,0-6.68-3.08c-7.1-2.73-18.18-4.46-23.51-5.29l-1.86-.3a15.14,15.14,0,0,0-2.33-.14c-2.75,0-6.79.37-10.69.73-3.44.32-6.68.61-8.62.61h0c-4.35,0-13.84-2.85-20.37-8.2C253.75,54.69,247,52.5,240.3,50.6c-2.46-.7-5-1.37-7.56-2-4.66-1.23-9.48-2.51-13.61-3.89-5.26-1.75-15.29-2.61-30.65-2.61-8.45,0-16.92.25-23.72.46-4.27.13-8,.24-10.26.24h0A51.88,51.88,0,0,0,136,46.23C129.12,49,124.84,53.09,123.6,58a23.46,23.46,0,0,0-.68,5.68c0,8.39,4.28,18,11.44,25.72,8.29,8.91,26.81,17.48,34.72,21.14,7.57,3.5,13.49,9.42,17.59,17.61,1.2,2.39,3.79,4.06,7.9,5.13,4.93,1.27,11.13,1.44,17.06,1.51h1.1c2.25,0,4.18,0,5.68.14a12.74,12.74,0,0,1,1.9.22c0,.05,0,.11,0,.18,0,3.9-4.15,16-7.3,21.23a137.37,137.37,0,0,0-11.14,23.54,13.28,13.28,0,0,0-.58,4.18c0,4.7,1.55,10.64,3,16.39,1.21,4.64,2.35,9,2.34,11.71,0,3.83,1.95,11.49,4.84,19.05,2.4,6.22,6.07,14.14,10,16.53,5.6,3.35,18.42,8.11,24.58,10.4l2,.73c2.08.78,3.28,3.06,3.29,6.25a15.64,15.64,0,0,1-1.71,6.85c-.89,1.85-4.16,2.86-9.19,2.86h-.1a90.79,90.79,0,0,1-11.13-.93c-1.16-.15-2.2-.28-3.06-.37-1.87-.19-4.71-.37-8-.59-7.56-.5-17.93-1.18-25.52-2.45a58.1,58.1,0,0,0-9.11-.57,180.11,180.11,0,0,0-22.69,1.64c-2.46.33-5.26.77-7.92,1.3,9.79-4.23,18-7,21.78-7.23.47,0,1,0,1.53,0,5.72,0,15.54,1.55,25,3,7.31,1.15,14.22,2.25,18.56,2.5,3,.17,6.35.37,9.18.37h.17c5.32,0,6.48-.82,6.87-1.09a1.89,1.89,0,0,0,.91-1.5c0-.45.16-1.8-3.73-4.35-8.23-5.5-18.43-18.93-20.47-21.67-.45-1.22-4.52-12.29-8.53-24.58-5.66-17.35-8.53-28.7-8.54-33.75a9.08,9.08,0,0,1,.05-1,26.64,26.64,0,0,1,2.71-8.35l.51-1c1.06-2.14,1.82-3.69,1.8-4.86a2.11,2.11,0,0,0-1-1.83c-1-.62-2.62-.69-5.69-.21a35,35,0,0,1-5,.29c-11.34,0-33.55-2.81-44-7.87-3.38-1.65-5.11-3.3-5.13-4.91a3.77,3.77,0,0,1,1.23-2.47c4.31-4.54,10.1-7,15.2-9.15,3.6-1.52,6.71-2.84,8.92-4.67a7.78,7.78,0,0,0,3.17-6.27,12,12,0,0,0-.81-4.08c-2.6-7.19-10.56-13.72-17.2-18.61-1.91-1.41-3.82-2.76-5.66-4.06-5.11-3.61-9.52-6.73-11.49-9.35a70.74,70.74,0,0,1-12.67-29.56,43.8,43.8,0,0,1-.91-8.07c0-3.78.85-6.55,2.7-8.72s5.14-4.05,9.78-5.38c12.91-3.69,43.31-7.3,56.58-7.3a151.57,151.57,0,0,1,48.59,7.89,66.91,66.91,0,0,1,17.46,9l.12.08c4,2.69,7.37,5,13.17,5.65a34.4,34.4,0,0,0,3.73.2A59.31,59.31,0,0,0,286,57.9a43.46,43.46,0,0,1,9.6-1.65c6.63,0,17.15,5.3,22.2,7.84l1.22.61c5,2.52,18.68,5.6,22.41,5.6a13.74,13.74,0,0,1,3.92,1.21l.09,0a14.15,14.15,0,0,0,4.44,1.39l1.38-.3.38-1.18v-.19c0-.35,0-1.44-2.11-4.83A53.42,53.42,0,0,0,342,57.27c-.75-.77-1.48-1.52-2.18-2.27-3-3.23-5.06-6.29-5.33-10.74-.3-4.72-1.16-7.19-3.07-8.81a14.63,14.63,0,0,0-2.63-1.67,26.06,26.06,0,0,1-3.82-2.41c-5.17-4.06-13-19.31-14.32-29.94-.05-.47-.11-1-.17-1.44h-2.52c.07.58.13,1.17.2,1.73,1.26,10.54,9.11,26.79,15.27,31.62A28.54,28.54,0,0,0,327.56,36a12.82,12.82,0,0,1,2.2,1.37c1.11.94,1.91,2.51,2.2,7.07.32,5.19,2.63,8.66,6,12.28.71.77,1.46,1.53,2.22,2.31a50.66,50.66,0,0,1,7.3,8.76,22,22,0,0,1,1.34,2.39c-.76-.26-1.71-.65-2.38-.93l-.09,0a14.63,14.63,0,0,0-4.88-1.4c-3.35,0-16.72-3-21.28-5.34L319,61.86c-5.63-2.83-16.1-8.1-23.33-8.11a45.11,45.11,0,0,0-10.2,1.72,56.48,56.48,0,0,1-13.69,2.14,31.72,31.72,0,0,1-3.44-.19c-5.18-.58-8.21-2.63-12-5.23l-.12-.08a69.09,69.09,0,0,0-18.05-9.28,154.11,154.11,0,0,0-49.41-8c-13.42,0-44.19,3.66-57.27,7.4-5.2,1.49-8.7,3.45-11,6.16s-3.3,6-3.29,10.34a46.24,46.24,0,0,0,1,8.53,73.21,73.21,0,0,0,13.13,30.6c2.21,2.93,6.77,6.15,12,9.89,1.83,1.3,3.73,2.64,5.62,4,6.36,4.68,14,10.89,16.33,17.45a9.53,9.53,0,0,1,.66,3.22,5.32,5.32,0,0,1-2.27,4.35c-1.92,1.6-4.87,2.85-8.29,4.29-5.33,2.26-11.37,4.81-16,9.73a6.14,6.14,0,0,0-1.92,4.2c0,2.68,2.17,5,6.54,7.14,10.82,5.22,33.55,8.11,45.13,8.12a37.3,37.3,0,0,0,5.43-.32,14.1,14.1,0,0,1,3.79-.21,19.91,19.91,0,0,1-1.52,3.54l-.52,1.06a29,29,0,0,0-2.94,9.15,11.72,11.72,0,0,0-.07,1.31c0,5.31,2.92,16.93,8.66,34.52,4.26,13,8.56,24.67,8.62,24.83l.3.51,0,0c2.17,2.92,12.52,16.51,21.05,22.21a11.89,11.89,0,0,1,2.36,1.9,18.92,18.92,0,0,1-5,.46H229c-2.76,0-6.1-.19-9-.37-4.21-.25-11.06-1.33-18.31-2.47-9.59-1.51-19.51-3.08-25.43-3.08-.6,0-1.16,0-1.69,0-4.41.3-13.75,3.47-25,8.46-8.55,3.81-19.09,9.15-23,12.72-3.17,2.89-7.19,9.4-10.78,17.44s-5.64,15.08-5.65,19.13l0,.79c.4,4.39,5.14,9.92,10.21,15.24,2,2.1,4.08,4.16,6.09,6.15,2.92,2.89,5.67,5.63,7.27,7.59,3.42,4.17,11.63,8.83,16.23,11.25,6.55,3.42,12.85,6.07,15.33,6.43,4.1.56,16.59,4.84,19.8,8.63.78.91,1.83,2.06,3,3.39l2.18,2.4h3.36c-1.32-1.49-2.57-2.87-3.69-4.09s-2.24-2.46-3-3.33c-3.77-4.46-17-8.88-21.35-9.48-1.83-.27-7.55-2.52-14.53-6.17-7.64-4-13.13-7.78-15.45-10.62-1.68-2.06-4.35-4.71-7.45-7.78-2-2-4.06-4-6-6.1-4.26-4.47-9.2-10.08-9.53-13.67l0-.68c0-3.62,2.08-10.54,5.43-18.07,3.45-7.73,7.26-13.94,10.18-16.6,1.84-1.66,5.74-4.07,10.82-6.73a109.19,109.19,0,0,0-9.56,11c-5.56,7.22-10.12,14.47-11.91,18.94a19,19,0,0,0-1.46,7.14c0,6.84,4.09,12.59,9,18.87,3.45,4.39,15.9,19.27,31.15,26.13,5.91,2.65,11.83,3.79,17,4.8,5.83,1.13,10.86,2.1,14.44,4.8,2.55,1.91,6.19,6.3,10,10.94l.61.73h8.27A10.88,10.88,0,0,1,200.39,379.85Zm19.87-245h0Z"/><path d="M310.4,361a3.55,3.55,0,0,0-2.35-1.63l-.48,0c-.36,0-1.44,0-4.93,1.75-2.11,1.05-4.65,2.49-6.86,3.75l-1.37.78c-4.19,2.39-8.52,4.86-10.6,5.39a4.59,4.59,0,0,1-1.1.11c-5.76,0-20.38-5.92-23.31-7.37-.32-.16-.83-.45-1.49-.82-3.63-2-11.18-6.3-16.13-6.3a5.33,5.33,0,0,0-3.56,1.13c-1.86,1.59-5,5.48-8.71,10L227.63,370c-3.92,4.77-8.31,10-10.7,11.49a11.83,11.83,0,0,1-4.12,1.49h6.32c2.7-2.1,6.47-6.58,10.43-11.4l1.87-2.29c3.45-4.23,6.71-8.22,8.4-9.66a3,3,0,0,1,2-.53c4.27,0,11.7,4.19,14.88,6,.7.39,1.24.7,1.59.88,1.49.74,17.44,7.61,24.42,7.64a6.94,6.94,0,0,0,1.72-.19c2.42-.61,6.7-3.05,11.23-5.64L297,367c2.18-1.24,4.69-2.66,6.74-3.68a13.64,13.64,0,0,1,3.79-1.48h.06a1.08,1.08,0,0,1,.71.55c1,1.56,1,6.22,1,10.73A18.56,18.56,0,0,0,312.7,383h3.06c-2.46-3.36-3.92-6.83-3.93-9.88C311.85,366.94,311.76,363,310.4,361Z"/><path d="M305.51,372.36c-.23-.52-.92-2.1-2.56-2.1h-.11l-.59.11-.17,0a21.85,21.85,0,0,0-4,2.08c-3.42,2-7.68,4.59-13.41,4.59-8.54,0-17.43-3.07-21.46-5.94-.9-.64-1.8-1.31-2.71-2-3.44-2.56-7-5.2-10.95-6.68a5.72,5.72,0,0,0-2-.34c-2.61,0-6,1.58-9,4.23a19.78,19.78,0,0,0-6.11,9,77.61,77.61,0,0,1-2.54,7.68h2.68c1.14-3,1.9-5.64,2.28-7a17.23,17.23,0,0,1,5.34-7.74c3.06-2.69,6.59-4.13,8.47-3.42a40.67,40.67,0,0,1,9.48,5.71,6.85,6.85,0,0,0-.89-.16c-1-.1-1.85-.21-2.69-.31a37.73,37.73,0,0,0-4.5-.39,7.58,7.58,0,0,0-6.43,2.85c-.76.89-1.55,2.85-2.55,6.36-.36,1.26-.74,2.65-1.14,4.12h2.59c.33-1.21.64-2.37.95-3.43,1.13-4,1.77-5.1,2.05-5.44a5.16,5.16,0,0,1,4.55-2,36.3,36.3,0,0,1,4.17.37c.86.11,1.77.22,2.75.32,2,.19,3,1.47,4.77,3.92l.53.72a22.79,22.79,0,0,0,5.49,5.5h5.47a18.36,18.36,0,0,1-9-7l-.52-.71c-.38-.53-.76-1-1.14-1.51,4.73,3,13.43,5.79,22,5.8,6.42,0,11.21-2.86,14.7-4.95a21.61,21.61,0,0,1,3.44-1.83l.12,0a2.51,2.51,0,0,1,.32.57,31.18,31.18,0,0,1,1.3,6.23c.17,1.09.35,2.24.55,3.41h2.54c-.23-1.3-.43-2.58-.61-3.79A31.84,31.84,0,0,0,305.51,372.36Z"/><path d="M446.81,337.62c.86-1,1.8-2.41,3.22-4.49.61-.89,1.31-1.92,2.14-3.11,2.58-3.75,4.07-9.67,5.51-15.4q.3-1.2.6-2.38a56.25,56.25,0,0,1,2.54-8.1c.86-2,1.83-3.19,2.72-3.46,6-1.81,16.27-7.43,17.43-8.08l.48-.33.19-.39c.15-.29.71-1.34,1.56-2.83a78.12,78.12,0,0,1,6.55-9.79c2.72-3.38,5.31-5.41,7-5.41,3.44,0,7.24,2.45,11.63,5.29a77.73,77.73,0,0,0,10.9,6.19A34.44,34.44,0,0,0,533,288.47h0c6.85,0,13.09-2.59,18.54-7.71,5.09-4.78,8.54-10.45,11.59-15.44,2.87-4.7,5.34-8.76,8.35-10.66,2.59-1.65,5-4.6,7.59-7.72,1-1.2,2-2.44,3.06-3.62,3.22-3.65,7.12-7.37,11.69-7.38l.55,0c.33,0,.64,0,1,0,4,0,6.07-1.76,7.06-3.23,1.12-1.66,1.65-3.86,1.65-6.93a58.47,58.47,0,0,0-.44-6.16c-.09-.87-.19-1.72-.25-2.53-.33-3.86-1.95-7.2-4-11.42A82.14,82.14,0,0,1,593,188.78c-3.19-12.73-15.21-23.66-21.66-29.53-1.29-1.18-2.41-2.19-3.2-3a20.12,20.12,0,0,1-3.7-5.4c-.27-.52-.55-1-.86-1.59a31.12,31.12,0,0,0-8.41-9.63c-6.49-5.2-11.33-7.13-17.87-7.13a64.6,64.6,0,0,0-11.51,1.32,99.53,99.53,0,0,1-18.46,1.88c-1.09,0-2.07,0-3,0s-1.47,0-2.16,0c-1.7,0-5.17-1.41-8.63-3.51a34.85,34.85,0,0,1-9-7.49c-2.32-3-3.94-8.36-3.93-13.09,0-3.09.71-5.57,2-6.83,1.47-1.48,4.4-2.39,7.81-3.44l2.17-.68C497.4,99,502.52,97,507,92.5c2.12-2.12,3.19-5.24,3.18-9.25,0-8.06-4.23-18.74-7.62-27.32-1.6-4.06-3-7.56-3.72-10.19-3-10.64-11.7-18.33-17.48-23.42L480,21.14c-3.19-2.82-5.09-7.35-7.49-13.07-1-2.48-2.18-5.22-3.56-8.07h-2.8c1.59,3.19,2.9,6.27,4.05,9,2.42,5.78,4.51,10.78,8.13,14l1.33,1.18c5.56,4.89,14,12.29,16.73,22.21.76,2.76,2.17,6.32,3.8,10.45,3.31,8.38,7.44,18.82,7.44,26.4,0,3.37-.8,5.82-2.45,7.48-4.09,4.09-8.88,6-13.45,7.49l-2.15.67c-3.72,1.15-6.94,2.14-8.84,4.06-1.75,1.74-2.71,4.79-2.71,8.59,0,5.24,1.83,11.25,4.46,14.62a37.41,37.41,0,0,0,9.72,8.09c4,2.43,7.71,3.87,10,3.87l2.08,0c.91,0,1.9,0,3,0a102,102,0,0,0,18.91-1.92A62.34,62.34,0,0,1,537.3,135c5.95,0,10.2,1.72,16.27,6.59a28.45,28.45,0,0,1,7.79,8.9c.29.53.56,1,.83,1.54a22.38,22.38,0,0,0,4.14,6c.83.83,2,1.87,3.28,3.06,6.7,6.09,17.91,16.29,20.92,28.29a84.4,84.4,0,0,0,6.62,17.42c1.93,4,3.45,7.15,3.75,10.55.07.83.16,1.69.26,2.58a56.3,56.3,0,0,1,.43,5.89c0,2.54-.39,4.3-1.22,5.53-1,1.42-2.64,2.13-5,2.13l-.84,0-.64,0c-5.58,0-10,4.16-13.58,8.22-1.07,1.21-2.11,2.47-3.11,3.68-2.45,3-4.75,5.76-7,7.2C566.67,254.75,564,259,561,264s-6.32,10.37-11.17,14.92-10.63,7-16.83,7h0a32,32,0,0,1-12.72-2.92,75.69,75.69,0,0,1-10.55-6c-4.73-3.05-8.81-5.69-13.08-5.69-3.1,0-6.53,3.45-8.85,6.33A80.41,80.41,0,0,0,481,287.81c-.74,1.29-1.26,2.26-1.52,2.75-1.65.91-11.21,6.09-16.68,7.73-1.68.49-3.08,2.08-4.29,4.85a58.31,58.31,0,0,0-2.68,8.49c-.2.79-.4,1.59-.6,2.39-1.38,5.51-2.82,11.21-5.14,14.58-.83,1.2-1.53,2.23-2.14,3.12-1.38,2-2.3,3.36-3.08,4.3a9.28,9.28,0,0,1-3.6,2.67c-4.21,2.1-4.79,6.51-4.79,10.55,0,.94,0,1.9.06,2.86s.06,1.81.06,2.68c0,2.39-.21,4.78-1.64,6-2.07,1.8-6.81,4.11-13,6.32-5.92,2.11-10.55,3.22-12,3.23a6.07,6.07,0,0,1-2.59-1.43c-.81-.63-1.71-1.41-2.67-2.24l-1.53-1.31C400,362.7,396.34,360,392.88,360a6.13,6.13,0,0,0-3,.74,27.2,27.2,0,0,0-8.09,6.27,21.83,21.83,0,0,1-2.44,2.37c-.51.4-1,.79-1.54,1.17-2.74,2-5.58,4.15-6.13,8.59a16.05,16.05,0,0,1-1.31,3.89h2.71a15.74,15.74,0,0,0,1.08-3.58c.42-3.39,2.61-5,5.14-6.9.54-.4,1.08-.8,1.61-1.23a24.2,24.2,0,0,0,2.71-2.63,24.74,24.74,0,0,1,7.44-5.77,3.63,3.63,0,0,1,1.79-.44c2.63,0,6,2.58,8.63,4.83l1.51,1.3c1,.85,1.9,1.65,2.78,2.33,1.55,1.19,2.77,1.93,4.1,2,2.41,0,8.21-1.71,12.9-3.38,3.8-1.36,10.65-4,13.8-6.79,2.18-1.93,2.48-4.95,2.49-7.92,0-.9,0-1.83-.06-2.76s-.06-1.86-.06-2.77c0-4,.58-6.91,3.4-8.32A11.85,11.85,0,0,0,446.81,337.62Zm32.93-47.24-.13.13h0Z"/><path d="M301.94,379.61c-.3-.78-1.11-2.86-3.43-2.86a7.06,7.06,0,0,0-3.32,1.07c-1,.58-2.07,1.26-3.16,2a36,36,0,0,1-5.61,3.22h5.24l1.74-1.13c1-.69,2-1.34,3-1.87a4.71,4.71,0,0,1,2.11-.75c.28,0,.6,0,1.09,1.26a21.57,21.57,0,0,1,.69,2.5h2.58c0-.17-.09-.34-.13-.51A23.86,23.86,0,0,0,301.94,379.61Z"/><path d="M395.09,376.59a5.91,5.91,0,0,0-2.94-.81c-3.45,0-6.16,3.71-8.14,6.94l-.16.28h3c2.07-3.16,3.83-4.72,5.39-4.72a3.47,3.47,0,0,1,1.69.5c1,.54,2.33,2.3,3.67,4.22h3l-.63-.91C398,379.28,396.53,377.38,395.09,376.59Z"/><path d="M516.66,309.17l.65-.79c4-4.85,7.43-9,11.32-9a6.31,6.31,0,0,1,1.34.15c6.53,1.45,16.4,3.65,25.39,3.65,6.92,0,12-1.28,15.62-3.92,4.69-3.47,7.21-11,9.87-19.06l.63-1.88c2.58-7.8,5.47-15.56,10-17.37l1.19-.49c10.4-4.26,27.8-11.4,37.49-29.57A24,24,0,0,0,633,219.41c0-9-4.8-16.8-8.81-21.81a56.53,56.53,0,0,0-16.74-14.12c-8.59-4.47-13.34-14.65-19.35-27.54-2.49-5.33-5.31-11.37-8.71-17.65-6.33-11.66-17.2-16.81-24.82-19.67-2.38-.89-4.72-1.66-6.77-2.33-1.68-.55-3.27-1.07-4.65-1.59-1.14-.42-4.6-1.7-5.26-3.2-1.72-3.75-5.87-6.78-10.33-9.81l-1.34-.91c-3.75-2.53-7.63-5.14-9.93-8a5.73,5.73,0,0,1-1-3.78c0-2.58.78-5.87,1.7-9.69,1.23-5.11,2.62-10.91,2.62-17.1a33.65,33.65,0,0,0-1.78-11.12c-5.73-16.62-15.57-24.8-17.41-26.23-.66-1-3.1-4.28-11.69-12.87a57,57,0,0,1-8.72-12h-2.86c2.88,5.15,6.08,10.09,9.81,13.81,9.61,9.62,11.27,12.31,11.43,12.58l.13.23.21.15c.44.33,10.9,8.27,16.74,25.19A31.18,31.18,0,0,1,517,62.26c0,5.89-1.36,11.54-2.55,16.52-1,4-1.77,7.4-1.77,10.27a8.15,8.15,0,0,0,1.61,5.36c2.53,3.1,6.56,5.82,10.47,8.44l1.34.9c4.16,2.82,8,5.62,9.45,8.77.76,1.72,2.76,3.08,6.67,4.52,1.42.53,3,1.06,4.75,1.62,2,.67,4.34,1.42,6.67,2.3,7.86,2.95,17.63,7.72,23.5,18.52,3.36,6.21,6.17,12.21,8.64,17.51,6.22,13.32,11.13,23.83,20.46,28.7,10,5.27,24.19,19.22,24.22,33.71a21.59,21.59,0,0,1-2.6,10.26c-9.27,17.37-25.5,24-36.24,28.43l-1.18.49c-5.46,2.2-8.5,10.2-11.38,18.89l-.63,1.88c-2.42,7.3-4.93,14.84-9,17.83-3.1,2.27-7.86,3.43-14.14,3.43-8.71,0-18.42-2.16-24.85-3.59a8.88,8.88,0,0,0-1.92-.21c-5,0-8.81,4.61-13.21,10l-.65.79c-4.78,5.76-9.67,11.06-17,12.7a25.44,25.44,0,0,1-5.45.68,10.06,10.06,0,0,1-6.8-2.25l-.79-.64c-1.23-1-2.4-2-4.2-2a9.93,9.93,0,0,0-5,1.88c-4.18,2.63-4.68,6.83-4.69,9.77a51.85,51.85,0,0,0,.67,7.05,51.65,51.65,0,0,1,.67,6.89,10.11,10.11,0,0,1-1.78,6.45c-2,2.56-4.38,6.07-6.94,9.79-5.46,7.94-11.64,16.93-16.13,20.62a8.65,8.65,0,0,0-2.69,4.49h2.63a5.67,5.67,0,0,1,1.64-2.55c4.77-3.91,11.06-13.07,16.61-21.14,2.54-3.69,4.93-7.17,6.86-9.67,1.57-2,2.3-4.57,2.3-8a53.48,53.48,0,0,0-.69-7.24,49.38,49.38,0,0,1-.65-6.7c0-3.83,1.06-6.12,3.51-7.65a8,8,0,0,1,3.74-1.5c.83,0,1.42.46,2.58,1.42l.83.68a12.54,12.54,0,0,0,8.38,2.79,27.43,27.43,0,0,0,6-.74C506.37,320.91,511.8,315,516.66,309.17Z"/><path d="M258.56,380.78c-2.5-1.82-4.54-3-6.37-3a4.57,4.57,0,0,0-3.72,2.13,6.79,6.79,0,0,0-1.13,3.12h2.54a4,4,0,0,1,.57-1.59c.77-1,1.29-1.15,1.76-1.15,1.2,0,3.14,1.29,4.88,2.55l.27.19h4.22l-1.1-.81Z"/><path d="M556.42,329.92c-.7-.68-1.41-1.35-2.09-2-1.22-1.16-2.37-2.25-3.3-3.23-2-2.11-2-2.88-2-2.9a1.18,1.18,0,0,1,.67-1.15,6.62,6.62,0,0,1,3.17-.6c3.92,0,9.73,1.6,15.94,4.4,3.92,1.76,6.84,2.58,9.27,2.58a6.86,6.86,0,0,0,6.28-3.57c1.16-1.95,1.83-4.54,2.54-8.09s6-9.15,13.11-13.93c7.58-5.1,15.7-8.26,21.2-8.26a11.9,11.9,0,0,1,2.33.21A52.94,52.94,0,0,0,634,294.55h0c10.21,0,19.15-4,28.13-12.57,4.57-4.36,6.79-8.51,6.79-12.71,0-5-3.15-9-5.91-12.48a38.44,38.44,0,0,1-3.05-4.25c-1.7-2.9-2.55-6.81-2.55-11.6a71.78,71.78,0,0,1,2.71-17.76,25,25,0,0,0,.92-6.38c0-6.51-3.51-9.82-7.22-13.32-.68-.64-1.37-1.29-2.06-2-1.86-1.84-2.23-5.31-2.23-9.95,0-.92,0-1.87,0-2.85s0-2.13,0-3.24c0-4.91-.28-10.7-2.34-16.38-2.51-6.92-6.57-10.79-11.22-14.79l-.79-.67c-4.1-3.51-8.33-7.13-11.93-13.49a36.22,36.22,0,0,0-5.29-7.56c-1.71-1.73-3.38-2.57-5.13-2.57-3.12,0-5.53,2.7-8.32,5.77l-.92,1c-2.72,3-4.11,3.65-4.82,3.65-.32,0-.86-.12-1.8-1.19a33.61,33.61,0,0,1-3.07-4.64,55.86,55.86,0,0,0-4.34-6.16c-3.25-4.19-6.06-7.8-6.45-14.53-.35-6-4.09-8.62-7.42-11-3.09-2.22-5.76-4.13-6-8.55,0-.57-.05-1.1-.05-1.57,0-3.53.75-4.13,1.94-5.12l.16-.13c1.44-1.16,3.41-2.75,4.62-7.36a10,10,0,0,0,.32-2.61c0-6.15-4.4-14.66-8.08-20.73a108.14,108.14,0,0,0-14-18.52c-3.56-3.57-6.55-5.17-9.69-5.17a16.16,16.16,0,0,0-5.82,1.44A23.84,23.84,0,0,1,534.34,36a25,25,0,0,1-4,.41c-3.19,0-5.23-1.23-10.67-4.52l-3.48-2.09c-3.66-2.18-5.87-3.5-7.33-5s-2.37-3.56-3.26-7.72-1.53-6.27-3-8A18,18,0,0,0,500,6.93c-.91-.71-2-1.59-3.48-2.89-1.62-1.46-3-2.74-4.21-4H489a60.9,60.9,0,0,0,5.89,5.9c1.51,1.36,2.68,2.27,3.62,3a16.08,16.08,0,0,1,2.18,1.89c1,1.15,1.59,2.75,2.47,6.84,1,4.61,2,6.95,3.9,8.92,1.69,1.76,4.14,3.22,7.85,5.44l3.46,2.08c5.72,3.46,8.08,4.89,12,4.89a27.24,27.24,0,0,0,4.41-.44,26.22,26.22,0,0,0,5.3-1.59A14.08,14.08,0,0,1,545,35.66c1.5,0,3.94.46,7.91,4.43a105.52,105.52,0,0,1,13.67,18.05c5,8.19,7.71,15.09,7.72,19.43a7.5,7.5,0,0,1-.24,2c-1,3.82-2.48,5-3.78,6.06l-.17.14c-1.7,1.42-2.82,2.68-2.85,7,0,.52,0,1.09.06,1.72.33,5.62,3.76,8.07,7.11,10.47,3.12,2.22,6.06,4.31,6.34,9.08.44,7.5,3.61,11.59,7,15.92a54,54,0,0,1,4.15,5.88,34.4,34.4,0,0,0,3.35,5,5.09,5.09,0,0,0,3.71,2c1.8,0,3.85-1.38,6.64-4.47l.93-1c2.5-2.75,4.47-4.93,6.48-5a5,5,0,0,1,3.33,1.83,33.9,33.9,0,0,1,4.89,7c3.82,6.75,8.22,10.52,12.48,14.16l.78.67c4.54,3.9,8.19,7.39,10.5,13.75,1.93,5.32,2.19,10.83,2.19,15.53,0,1.1,0,2.17,0,3.21s0,2,0,2.88c0,5.41.49,9.26,3,11.72.71.71,1.42,1.38,2.11,2,3.6,3.39,6.44,6.07,6.44,11.5a22.84,22.84,0,0,1-.84,5.75,74.24,74.24,0,0,0-2.8,18.4c0,5.24,1,9.57,2.89,12.85a40.17,40.17,0,0,0,3.25,4.54c2.63,3.35,5.36,6.82,5.38,10.95,0,3.47-2,7-6,10.89-8.48,8.11-16.87,11.88-26.4,11.88h0a50.59,50.59,0,0,1-10-1.12,14.47,14.47,0,0,0-2.84-.26c-6,0-14.48,3.25-22.57,8.69-7.79,5.2-13.35,11.3-14.17,15.52-.66,3.29-1.26,5.66-2.24,7.3a4.43,4.43,0,0,1-4.18,2.35c-2,0-4.66-.77-8.19-2.36-6.52-2.93-12.7-4.62-17-4.62a8.7,8.7,0,0,0-4.42,1,3.65,3.65,0,0,0-1.88,3.25c0,.75.25,2.05,2.72,4.65,1,1,2.15,2.14,3.39,3.33.67.64,1.37,1.3,2.06,2,3.95,3.86,7.6,8,7.62,11.94a6.12,6.12,0,0,1-1,3.32c-5.19,8.31-9.95,11.68-15.46,15.58-.86.61-1.74,1.23-2.64,1.88-1.41,1-2.81,2.15-4.29,3.35-5.4,4.36-11.53,9.3-19,9.31a45.26,45.26,0,0,1-8.69-1,31.83,31.83,0,0,0-5.77-.73,12,12,0,0,0-7.47,2.52,25.62,25.62,0,0,0-4.84,5.13h3.2a18.24,18.24,0,0,1,3.12-3.1,9.58,9.58,0,0,1,6-2,29.67,29.67,0,0,1,5.29.69,47.28,47.28,0,0,0,9.15,1c8.35,0,14.84-5.25,20.57-9.87,1.46-1.18,2.84-2.29,4.19-3.27.89-.65,1.76-1.26,2.61-1.87C553,360.53,558,357,563.43,348.29a8.67,8.67,0,0,0,1.37-4.65C564.77,338.51,560.46,333.87,556.42,329.92Z"/><path d="M165.09,374.39l-.51-.3-.21,0c-1.31-.26-13-2.74-21.58-9-4.06-3-11.35-9.68-19.52-17.93-7.37-7.45-13.31-14-14.45-16-.28-.49-.6-1-.94-1.58-2-3.31-4.73-7.83-4.73-13.27a16.39,16.39,0,0,1,.85-5.17c2.29-6.86,8.08-13.36,13.18-19.1,1.58-1.78,3.08-3.46,4.38-5.06,4-4.92,11.77-9.86,18-13.83,2.11-1.35,4.1-2.62,5.67-3.72,5.86-4.07,34.15-16.31,44.09-16.34a31.77,31.77,0,0,1,8.16,1.2,12.84,12.84,0,0,0,2.92.54,2.13,2.13,0,0,0,1.53-.56,2.29,2.29,0,0,0,.6-1.73,14.48,14.48,0,0,0-.71-3.69,51.18,51.18,0,0,0-2.92-7.48c-1.58-3.47-2.94-6.46-3-10.38a18.74,18.74,0,0,1,.38-3.7,22.74,22.74,0,0,0,.41-4.44c0-9.16-4.56-19.82-8.48-26.17a49.55,49.55,0,0,1-3.19-6.6,52.72,52.72,0,0,0-2.92-6.15c-2-3.37-5.21-7.23-12.46-7.25-6.18,0-16.52,0-26.29-1.74-11.65-2.09-19-6.06-21.72-11.79a17.72,17.72,0,0,1-1.77-7.68c0-10.6,9.48-20.35,18.3-22.82A61.62,61.62,0,0,1,149.32,131l.57,0c4.53-.35,7.21-.74,8.4-1.81a2.24,2.24,0,0,0,.82-1.69c0-1.16-.88-2.59-2.8-4.35-3.22-3-8.36-5.8-13.8-8.77-1.9-1-3.86-2.1-5.77-3.2-6.68-3.83-13.84-8.57-16.26-14.59-1.13-2.84-2.69-6.16-4.34-9.68-4.24-9-9.51-20.28-9.52-28a11,11,0,0,1,1-4.91c5-10,15.13-13.15,20.73-14.17,2.15-.39,5-.59,8-.81,6.51-.47,13.89-1,18.56-3.56,5.12-2.79,22.48-8.21,36-8.22a33,33,0,0,1,8.52,1c12.82,3.5,35.84,6.49,48.41,8,10.1,1.19,18.31,5.82,26.52,10.87,2.49,1.54,4,2.16,5.3,2.16a4.83,4.83,0,0,0,2.54-.9c.27-.16.58-.34.93-.52a13.25,13.25,0,0,1,6.36-1.21h0c4,0,9,1.41,14.12,3l.91.28c4.68,1.43,9.1,2.77,12.19,2.77a5,5,0,0,0,4-1.45,3.46,3.46,0,0,0,.79-2.33c0-2.63-2.06-6.73-6.76-13.29-1-1.45-2.09-2.89-3.11-4.27a72.4,72.4,0,0,1-5.46-8l-.65-1.3c-1.41-2.79-3.54-7-5.38-11.13-.87-1.95-3.36-7.5-3.82-10.7h-2.52c.27,2.44,1.55,6.13,4.06,11.73,1.87,4.17,4,8.42,5.43,11.23l.65,1.29a71.67,71.67,0,0,0,5.68,8.38c1,1.37,2.07,2.8,3.09,4.24,4.2,5.86,6.31,9.83,6.29,11.82,0,.5-.13.66-.19.72a2.88,2.88,0,0,1-2.14.58c-2.71,0-7-1.29-11.45-2.66l-.92-.28C299,45.43,293.88,44,289.53,44h0a15.59,15.59,0,0,0-7.5,1.49c-.4.21-.75.41-1.05.59a2.74,2.74,0,0,1-1.32.55c-.69,0-2-.6-3.94-1.79-8.12-5-16.94-10-27.54-11.23-12.51-1.47-35.38-4.44-48-7.9a35.43,35.43,0,0,0-9.18-1.05c-14.16,0-31.75,5.55-37.22,8.53-4.19,2.3-11.28,2.81-17.54,3.26-3.08.22-6,.43-8.26.84-6.06,1.1-17,4.58-22.52,15.52a13.46,13.46,0,0,0-1.26,6c0,8.32,5.19,19.36,9.76,29.11,1.63,3.49,3.18,6.78,4.28,9.55,2.7,6.72,9.93,11.58,17.34,15.83,1.94,1.11,3.91,2.18,5.81,3.22,5.3,2.89,10.31,5.62,13.3,8.41a7.31,7.31,0,0,1,2,2.37c-.89.69-5.23,1-6.89,1.15l-.58,0a63.56,63.56,0,0,0-11.57,1.7c-9.7,2.71-20.1,13.49-20.13,25.22a20.21,20.21,0,0,0,2,8.76c3.17,6.59,10.87,10.9,23.53,13.17,10,1.78,20.47,1.78,26.76,1.78,5.9,0,8.43,2.9,10.27,6a50.2,50.2,0,0,1,2.77,5.85,51.48,51.48,0,0,0,3.36,6.93c3.74,6.07,8.11,16.23,8.11,24.86a20.21,20.21,0,0,1-.37,3.95,21.24,21.24,0,0,0-.43,4.19c0,4.46,1.55,7.84,3.18,11.42a49.12,49.12,0,0,1,2.79,7.13,15.26,15.26,0,0,1,.6,2.76c-.47-.07-1.15-.24-1.92-.43a34.41,34.41,0,0,0-8.78-1.28c-10.56,0-39.32,12.48-45.51,16.79-1.53,1.07-3.5,2.33-5.58,3.66-6.37,4.07-14.29,9.13-18.57,14.36-1.27,1.55-2.75,3.22-4.31,5-5.26,5.92-11.23,12.62-13.69,20a18.89,18.89,0,0,0-1,6c0,6.13,3.06,11.2,5.08,14.56.33.55.64,1.06.91,1.54,1.54,2.68,9,10.57,14.84,16.52,8.26,8.34,15.67,15.14,19.82,18.19,8.62,6.32,20.23,8.95,22.35,9.39l.14.09,2.75,1.66c1.54.94,4.47,2.74,7.69,4.81h4.59c-4.16-2.75-8.44-5.4-11-6.95Z"/><path d="M696.72,304.62l-1.06-.26-.41,1a90.24,90.24,0,0,1-9.39,17.13c-8.09,11.41-16.88,17.2-26.13,17.21-9.62,0-17.47-2.86-23.88-5.66-1.27-.56-2.48-1.11-3.65-1.64-4.92-2.24-9.17-4.18-12.85-4.18a8.78,8.78,0,0,0-4.88,1.39c-4.66,3-6.07,6.84-7.1,10.51l-.23.85c-.82,3-1.52,5.58-4.15,7.17a6.74,6.74,0,0,1-3.49.76,40.59,40.59,0,0,1-8.09-1.28,39.39,39.39,0,0,0-8.13-1.27c-2.06,0-4.95.39-6.26,3.5-1.67,4-4.2,13.06-6,19.95-1.55,5.82-2.87,11.1-3.38,13.19h2.58c.58-2.35,1.81-7.23,3.22-12.55,2.6-9.77,4.65-16.56,5.92-19.62.43-1,1.21-1.95,4-2a37.89,37.89,0,0,1,7.56,1.21,42.16,42.16,0,0,0,8.63,1.34,9.13,9.13,0,0,0,4.77-1.12c3.49-2.11,4.4-5.44,5.28-8.66l.23-.83c1-3.47,2.11-6.55,6-9.09a6.3,6.3,0,0,1,3.56-1c3.11,0,7.13,1.83,11.79,4,1.18.54,2.41,1.1,3.69,1.66,6.65,2.9,14.8,5.87,24.89,5.87s19.58-6.15,28.17-18.26a92,92,0,0,0,9.24-16.61l1.26.37,1.58.49v-2.62l-.87-.27C698,304.95,697.14,304.72,696.72,304.62Z"/><path d="M678.33,141.91c-7-7.32-14.83-15.61-15.42-16.75a18.73,18.73,0,0,0-1.8-3.15c-3-4.81-9.37-14.82-8.8-24.56.72-12.27,1.52-33.14,1.52-43.48,0-6.82-12.65-15.42-26-24.52-7.72-5.25-15-10.2-19.24-14.43A66.7,66.7,0,0,1,597.49,0h-2.88c3.1,5.44,6.42,11,12.16,16.79,4.4,4.4,11.79,9.42,19.6,14.73,11.7,7.95,25,17,25,22.45,0,10.29-.8,31.09-1.52,43.33-.62,10.54,6,21,9.18,26a24.88,24.88,0,0,1,1.54,2.6c.38,1.15,3.94,5,16,17.68,9.47,10,20.2,21.26,23,25.28a7.91,7.91,0,0,1,.48.79v-4.26C695.79,160.3,686.59,150.61,678.33,141.91Z"/></svg>