<svg xmlns="http://www.w3.org/2000/svg" viewBox="0 0 429 354">
	<path fill="#313131" d="M315.8,331.4c.2,0,.3.1.5.1a19,19,0,0,0,3.7.5h1c18.9.6,27.9-4.7,37.7-14.7a56,56,0,0,0,13.1-21.2,76.71,76.71,0,0,0,4-23,14.77,14.77,0,0,0,.1-2.1c.3-17.9-3.5-37-7.1-55.6-.2-1.3-.5-2.6-.7-3.8-2.9-14.9-8.9-31.9-1.7-51.8,7.5-20.9,10.7-25.1,25.7-45.3,1.8-2.3,3.6-4.8,5.7-7.6,8.3-11.2,14.9-21.3,18.7-30.6,3-7.2,4.2-14,3.4-20.9-2.5-17.2-19.4-26.6-34.8-27.1a63.83,63.83,0,0,0-12.7.9,30.19,30.19,0,0,0-6.6,1.8c-9.1,3.6-15.1,7.6-20.8,18.1A72,72,0,0,0,340.2,62l-.1.3c-.4,1.4-.9,3.1-1.4,4.7-1.2,3.5-2.7,7.3-4.5,11.3a32.55,32.55,0,0,0,3.6.3,33.09,33.09,0,0,0,11.6-1.5c1.6-.6,4.2-2.4,6.6-6a14.61,14.61,0,0,0,9.1,6.8c-3.7-11.4-2-18.9-2-18.9,1.6-9.9,6.4-23.5,17.4-25.8A23.79,23.79,0,0,1,403.9,42c5.1,6.6,5.2,11.7,4.1,17.8-2.6,14.7-15.4,27.7-25.5,39.9-1.4,1.7-2.7,3.3-4.2,5-11.9,14.1-32.7,31.7-33.2,67.9-.4,22.8,9,35.3,14.4,57.1s4.5,26.9,3.1,37.1a95.66,95.66,0,0,1-3.2,14.4A35.51,35.51,0,0,1,345,301.6c-.4.2-.7.4-1.1.6a27.1,27.1,0,0,1-14.4,3.4,19.86,19.86,0,0,1-5-.6h-.1a25.84,25.84,0,0,1-5.8-2.8,16.38,16.38,0,0,1-2.5-2.1l-.9-.9c-1.7-2.5-2.5-6.9-3-12.5-.4-4.7-.7-10.1-1.2-15.8-.1-1.3-.3-2.7-.4-4v.1c-1.8-16.1-5.9-34-19.2-46-7.7-7,6.2-19.2,6.2-19.2,15.5-16.2,7.8-38.8,7.8-38.8s-7.9-17.2.6-20.9c6.8-2.9,9-9.4-2.5-27.5-3.7-5.8,1.3-10.6,4.3-12.1,2.4-1.2,1.6-6.8.5-10.1a32.05,32.05,0,0,0-3.8-6.7c-4.7-6.7-3.9-12.1-3.9-12.1V62.4c-.1-11.9-7.1-15.1-7.1-15.1s-.1-.1-.2-.1a17.48,17.48,0,0,1-2.9-1.8c-.6-.7-1.3-1.3-1.9-2,.2-6.5-.6-13.8-4.3-18.8a3.23,3.23,0,0,0-3.5-1.4c-4.7,1.6-8.1,5.7-10.6,10.2a13.53,13.53,0,0,1-4.9-.3c-2.9-1.1-5.6-3.3-8.6-4.1a18,18,0,0,0-15.2,3c-10.1-1.5-20.3-5.5-23.7-5.8a4.78,4.78,0,0,0-4,1.1c-2.8,2.7-4.4,7.6-5.3,11.2-1.2,5.3-1.7,12.9,2.1,17.4s10,.5,14.1,5.8a9,9,0,0,1,.7,9.6,8.79,8.79,0,0,1-.6,1c-9.7-9.6-23.6-10.1-23.6-10.1-27.8-1.2-21.8-21.8-22.3-21.3-14.3,12.9-2,25.7,9.2,26.1,15,.5,21.8-2.9,35.9,6.5-3,3.8-6.8,4.5-10.8,2.4-7.1-3.6-12.9,2.3-12.5,8,.5,6.7,6,11.3,12.5,11.6h2.2l5.7-.9c.6,0,1.2.1,1.7.1a13.2,13.2,0,0,1,7.2,3.2c2.6,3.6,2.2,8.7,1.7,12.8-1.3,10.2-7.4,14.7-19.4,12.8-10.7-1.7-16.8,12.7-22.7,12-4.1-.5-6.3-2.2-10-.7-2.8,1.2-9.2-1-12.6-4.7-7.2-7.7-12.5-4.7-21.9-7.4s-9.5-9.6-14.3-9.7c-6.9-.1-19.7-5.5-26-4.7l-7-34A10.67,10.67,0,0,0,93.5,54L91.3,42.4a5.62,5.62,0,0,0-10.7,3.1L81.9,52C66.7,53.5,53.5,39.8,47.5,32.4c-18.6,32.2-4.6,73.3,16.7,79.5,2.5-8.7,9.2-26.5,23.5-31.5l6.2,30.2-5.7,6.2s-2.9,4.4-2.3,8.9c0,0,4.1,9.8,2.2,12.6,0,0-3.2,5.3-.1,10.2,0,0,3.3,6.5,8,7.5l7.7,1.1,2.5,12-6.4,2.2s-7.2,2.7-8,9.9a13.07,13.07,0,0,0,1.3,7.3s3.6,5.7,2.8,17.5c-.5,7.1,7.1,10.6,7.1,10.6s2.8,2,13.2,1l2.9,14.1,11-2.3-2.9-13.8.7-.1a29.94,29.94,0,0,0,5.8-1.8c5.3-2.2,9.7-2.2,14.7-.1a7,7,0,0,0,4,.6,7.76,7.76,0,0,0,2.1-.6c10-4.9,11-1.8,14-1a23,23,0,0,0,2.8.6c9.7,1,11.3-3.3,11.3-3.3,2-4.6,5.8-4.7,5.8-4.7,5.9-.5,6.4,11.2,6.4,11.2,1.7,19.8,24.9,23.4,24.9,23.4a62.3,62.3,0,0,1,12.6,4,44.86,44.86,0,0,1,22.2,21.6,29.56,29.56,0,0,1,3.2,11.5,5.29,5.29,0,0,1-7.7,5c-.5-.3-1-.6-1.4-.9-7.7-6-19.5-7.3-19.5-7.3-22.6-3.9-39.4,11.7-39.4,11.7-6.3,5.4-11.6,7.4-14.7,8.2a19,19,0,0,1-4.1.4c-6.3-.1-6.4,4.8-6.4,4.8-1.1,8.9-1.7,13.8-1.7,13.8-1.8,14.2.9,19.6.9,19.6,4.51,10.08,4.88,17.07,3.79,21.8H196.9c2.21-7.59,7.2-10.5,7.2-10.5,9.6-5.9,14.2-.2,14.2-.2,3.47,3.41,2.87,7.34,1.44,10.7h89.14A147.76,147.76,0,0,0,315.8,331.4ZM138,165.8s-8.8-.3-12.7,1a17.7,17.7,0,0,1-8.3.1l-1.9-8.9,4.3.9c2.1.5,4.5.5,6.5,1.4,6.6,3.1,18.5,5.2,18.6,5.2Z"/>
</svg>
