<?xml version="1.0" encoding="utf-8"?>
<!-- Generator: Adobe Illustrator 26.2.1, SVG Export Plug-In . SVG Version: 6.00 Build 0)  -->
<svg version="1.1" id="Layer_1" xmlns="http://www.w3.org/2000/svg" xmlns:xlink="http://www.w3.org/1999/xlink" x="0px" y="0px"
	 viewBox="0 0 800 85.2" style="enable-background:new 0 0 800 85.2;" xml:space="preserve">
<style type="text/css">
	.st0{fill:#E4A01B;}
</style>
<g transform="translate(2.000000, 1.000000)">
	<path class="st0" d="M478.2,11.8c11.4,0,19.6,5.2,19.6,5.2l-2.4,5.5c0,0-7.4-5.7-17.7-5.7c-16.8,0-24.7,13.6-24.7,26
		c0,13.9,10,26.2,25,26.2c10.1,0,18-6.2,18-6.2l2.4,4.5c0,0-8.7,6.8-21.1,6.8c-18.1,0-30.9-13.2-30.9-30.9
		C446.4,25.8,458.7,11.8,478.2,11.8"/>
	<path class="st0" d="M533.3,11.8c18.2,0,30.4,13.2,30.4,30c0,17-12.7,32.3-31.2,32.3c-18,0-30.5-14.2-30.5-31
		C501.9,27,513.4,11.8,533.3,11.8 M532.7,68.9c15.4,0,24.4-13.5,24.4-26.4c0-13-8.8-25.6-24.4-25.6c-15.6,0-24.4,13-24.4,25.5
		C508.3,55,517.1,68.9,532.7,68.9"/>
	<path class="st0" d="M571.6,12.9h5.9V68H607v5h-35.3V12.9z"/>
	<path class="st0" d="M615.1,12.9h5.9V68h29.4v5h-35.3V12.9z"/>
	<path class="st0" d="M657.6,12.9h34.5v5h-28.6v21.9h22.6v5h-22.6V68h28.2v5h-34.1V12.9z"/>
	<path class="st0" d="M729.1,11.8c11.8,0,19.8,4.5,19.8,4.5l-2.4,5.6c0,0-7.4-5-17.8-5c-16.8,0-25,13.2-25,26.3
		c0,14.4,9.8,25.9,26.9,25.9c6.1,0,12.1-1.8,12.1-1.8V47.8h-13.2v-5h19.1v28.4c0,0-10.5,2.8-19.2,2.8c-17.6,0-32.2-11.4-32.2-30.4
		C697.3,26.9,708.7,11.8,729.1,11.8"/>
	<path class="st0" d="M762.2,12.9h34.5v5h-28.6v21.9h22.6v5h-22.6V68h28.2v5h-34.1V12.9z"/>
	<path class="st0" d="M33.9,81.7c0,0,32.3-18.8,34.6-53.4c-0.2,0-0.3-0.1-0.5-0.1c-24.6-4.2-45.8,9.9-57.6,30.4
		C20.5,73.5,33.9,81.7,33.9,81.7"/>
	<path d="M68.6,22.8c0-12.1,0-16.6,0-16.6c-0.5-0.2-13.9-5-34.5-5c-21,0-34.7,5-34.7,5v18.3c0,4.5,0.5,8.7,1.5,12.7
		C18,24,41.7,17.7,68.6,22.8"/>
	<path d="M93,55.8h3.1c-0.7,11.2,5.4,15,13.2,15c5.9,0,11.6-3.9,11.6-10.9c0-15.9-28.6-15.6-28.6-34.1c0-9,6.7-15.6,20.2-15.6
		c6.5,0,13.1,1.8,15.1,2.1l-2.9,15.8h-3.1c0.9-6.8-2.4-13.7-10.1-13.7c-6.1,0-11.3,2.5-11.3,8.5c0,16,28.5,14.4,28.5,34
		c0,10.9-9.4,17.4-20.3,17.4c-7.9,0-17.6-2.7-17.6-9.4C90.9,63.4,91.2,61.2,93,55.8"/>
	<path d="M148.7,70.5c4-0.4,6.4-2.6,6.4-5.8V17h-7.7c-6.2,0-8.9,1.9-12.3,11.1h-3l2.8-15.1c0,0,2.3,0.5,6,0.5h39.5
		c3.7,0,6.4-0.5,6.4-0.5L184,28.1h-3c0.4-9.2-2.5-11.1-9.5-11.1h-7.7l-0.9,0.9v46.9c0,2.7-0.4,4.8-0.4,4.8l8.9,0.8l-0.4,2.5
		l-22.4,0.5V70.5z"/>
	<path d="M240.3,9c19.7,0,32.3,13.3,32.3,30.4c0,18-13.8,34.8-34.6,34.8c-19.3,0-31.9-14.6-31.9-31.8C206.1,25.4,218.3,9,240.3,9
		 M241.9,70.3c14.8-1.1,22.3-16.5,21.3-30.3c-1-14.1-10.9-28.2-26.5-27.1C222,14,214.4,27.9,215.4,41.7
		C216.4,55.7,226.4,71.4,241.9,70.3"/>
	<path d="M276.5,70.5c4.1-0.5,6.1-2.4,6.1-5.7V21.2c0-4.4,0-5.3-6.7-6.7v-2.3h7.1c8.2,0,10.2-0.4,10.2-0.4l0.5,0.4c0,0-3,3.5-3,11
		v41.2c0,2.7-0.5,5-0.5,5h13.6c7.8,0,9.3-2.8,13.9-13.1h3.1L317,73.1h-27.7c-4.6,0-12.8,0.3-12.8,0.3V70.5z"/>
	<path d="M320.9,70.5c3.8-0.4,5.4-2.3,6.1-4.1l21.6-53.8l3.7-0.8l20.3,51.8c2.5,6.2,4.1,6.7,6.9,7.1l-0.4,2.5h-3.9
		c-3.4,0-13.9,0.3-13.9,0.3v-3.1c2.6-0.1,4.8-0.8,3.8-3.6l-5.6-14.6h-21.8l-1.2,0.9l-6.3,16.4l7.8,1.1l-0.4,2.6h-16.9V70.5z
		 M348.5,21.9l-10.1,26.4h19.8l-7.8-20.8C349.6,25.7,348.9,23.3,348.5,21.9L348.5,21.9z"/>
	<path d="M383.4,70.5c4.1-0.5,6.6-2.6,6.6-5.9V21.2c0-4.4-0.5-5.3-7.5-6.7v-2.3h36.7c3.7,0,6.6-0.4,6.6-0.4l-2.8,15.2h-3.1
		c0.5-9.4-2.6-11.3-9.9-11.3h-11l-0.9,0.9v24.2h16.2l0.7-5.2l3.4-0.5v16.1h-4.3v-6.7h-15.1l-0.9,0.9v19.2c0,2.7-0.5,4.9-0.5,4.9
		l10,0.8l-0.4,2.6l-23.8,0.5V70.5z"/>
	<path d="M183.1,64.8c2.9,0,4.7,1.9,4.7,4.4c0,2.6-2,5-5,5c-2.8,0-4.6-2.1-4.6-4.6C178.2,67.1,179.9,64.8,183.1,64.8"/>
</g>
</svg>
